<?xml version="1.0" encoding="utf-8"?>
<!-- Generator: Adobe Illustrator 18.1.0, SVG Export Plug-In . SVG Version: 6.00 Build 0)  -->
<svg version="1.1" id="Layer_1" xmlns="http://www.w3.org/2000/svg" xmlns:xlink="http://www.w3.org/1999/xlink" x="0px" y="0px"
	 viewBox="0 0 792 612" enable-background="new 0 0 792 612" xml:space="preserve">
<polygon fill="#39C6F4" points="653.4,302.9 138.6,302.9 138.6,317.6 144,317.6 143.9,323.4 146.3,323.8 145.8,347.1 147.6,347.2 
	147.5,351.7 147.5,351.7 147.5,351.7 147.6,351.7 147.6,351.7 147.7,351.7 147.8,351.7 148.2,351.7 149.5,351.7 149.4,355.7 
	149.4,355.8 149.4,355.8 149.5,355.8 149.6,355.8 151.6,355.9 151.5,359.7 151.5,359.8 151.5,359.8 151.6,359.8 153.6,359.9 
	153.5,363.1 153.6,363.2 153.6,363.3 159.9,363.7 159.9,367.4 164.6,367.4 164.8,366.4 165.1,366.4 165.1,366.3 165.1,366.2 
	165.1,366 165.1,365.6 165.1,365.4 165.1,365 165.1,364.8 165.1,364.5 165.1,364.2 165.1,364 165.1,364 165.1,363.9 165.1,363.7 
	171.5,363.3 171.6,363.2 171.7,363 171.8,363 171.9,362.9 171.9,362.8 171.9,359.9 173.7,359.8 173.8,359.8 174,359.7 174.1,359.7 
	174.1,359.7 174.1,359.5 174.1,355.9 175.8,355.8 175.9,355.8 175.9,355.8 175.9,355.7 175.9,355.7 175.9,351.7 177.1,351.7 
	176.7,435.1 206.8,435.1 208.2,351.4 212.8,351.2 213,379.5 213.6,389.2 218.9,416.2 234.3,416 239.3,391.5 240.2,379.4 240.4,349 
	242,349 242.2,356.5 249.3,356.2 249.4,326.8 250.3,327 251.1,327.1 251.1,428.1 251.1,440.9 265.5,440.9 265.5,428.4 279.1,428.4 
	279.3,340.2 282.6,338.4 282.6,339.1 285,339.3 285,391 309.2,391.1 309.2,358.8 309.2,346 311.7,346.1 315,345.5 315,351.3 
	319.7,352 319.9,352 319.9,354 320.3,354.1 328.3,354 328.5,400.1 349.9,399.9 350,390.1 350.2,342.9 350.4,344.4 354.5,360 
	354.7,360 354.7,385 355.6,387.5 355.7,414.4 356.4,416 357.2,416.2 357.2,417.3 357.2,417.4 357.7,417.6 357.7,418.6 357.7,418.9 
	358.5,419 358.5,420.8 358.5,421 359.2,421.2 366.6,421.2 367.3,421 367.3,420.8 367.3,419 368,418.9 368,418.6 368,417.6 
	368.6,417.4 368.6,417.3 368.6,416.2 369.4,416 370.2,414.4 370.2,387.5 371.1,385 371.2,356 372.9,347.1 373,331 376.4,331 
	376.4,317.6 376.5,317.6 376.5,347.6 377.2,347.6 377.2,360.2 384.6,360.7 384.6,349.8 386.3,349.9 386.6,349.9 386.6,347.6 
	388.1,347.6 388.1,345.3 388.9,345.3 389.1,345.3 389.1,347.8 390.1,348 390.1,353.9 391,353.9 391,353.9 391,359.8 395.1,359.8 
	395.1,356.3 399.8,356.2 401.1,356.2 401.1,349.7 402.1,349.6 402.1,344.3 405.4,344.3 405.5,344.3 405.5,345.7 413.9,345.5 
	413.8,322.7 416.8,322.7 416.1,350.5 416.1,384.5 417.5,384.7 417.5,396.2 430,396.2 430,384.7 431.4,384.5 431.4,350.5 
	430.7,322.7 431.4,322.7 431.4,317.6 432.8,317.6 432.9,334.6 434.8,334.6 433.8,394.9 433.9,394.9 433.9,394.9 434.8,395.1 
	434.8,395.1 434.9,395.1 435,395.1 442.8,410.9 451,410.9 459,395.2 459.1,395.2 459.1,395.2 459.2,395.2 459.5,395.2 459.4,370 
	464.6,370.2 464.6,415.6 474.7,417.1 474.9,347.5 480.7,351.8 480.7,372.1 481.2,380.5 481.2,399.9 482.1,400.2 482.3,400.2 
	482.3,401.2 483.3,401.4 483.4,401.4 483.4,402.3 484.5,402.5 484.5,402.5 484.5,403.5 485.5,403.7 485.5,403.7 485.5,404.7 
	486.6,404.9 490.7,404.9 491.8,404.7 491.8,403.7 491.9,403.7 492.8,403.5 492.8,402.5 493,402.5 494,402.3 494,401.4 494.1,401.4 
	495.2,401.2 495.2,400.2 495.2,400.2 496.2,399.9 496.2,380.5 496.7,372.1 496.8,357.5 500.2,350.8 500.2,436.6 524.2,436.6 
	524.3,387.7 551.8,387.4 551.8,370.5 560,370.5 560.1,395.1 578.2,395.1 578.3,370.1 581,370.1 581.6,370.1 582.1,337.4 595.9,336 
	595.9,401.8 626.3,401.7 626.3,317.6 629.6,317.6 629.4,334.4 653.4,334.4 653.4,304.5 "/>
<g>
	<path fill="#FFFFFF" d="M631.2,247.8c-0.7,0-1.4-0.5-1.5-1.2c-0.3-0.8,0.3-1.7,1.1-1.9c9.6-2.4,16.2-11,16.2-20.8
		c0-11.1-8.4-20.3-19.5-21.4c-0.9-0.1-1.4-0.8-1.4-1.7v-0.1c0.1-0.5,0.1-1.1,0.1-1.5c0-11.1-9-20.1-20.1-20.1
		c-2.9,0-5.7,0.6-8.4,1.9l-2.7,1.2c-0.4,0.1-0.9,0.1-1.2,0c-0.3-0.1-0.7-0.5-0.9-1l-1-2.9c-6.6-19.6-24.8-32.7-45.4-32.7l0,0
		c-13.3,0-25.6,5.3-34.8,15.1c-0.5,0.6-1.5,0.6-2.2,0.1c-0.6-0.5-0.6-1.5-0.1-2.2c9.6-10.2,23.1-16.1,37-16.1l0,0
		c21.9,0,41.3,14,48.3,34.7l0.4,1.2l1.2-0.5c3.1-1.4,6.3-2.1,9.7-2.1c12.8,0,23.2,10.4,23.2,23.2c0,0.1,0,0.3,0,0.5
		c11.9,1.8,20.8,12,20.8,24.2c0,11.3-7.7,21.1-18.5,23.7C631.4,247.8,631.3,247.8,631.2,247.8z"/>
</g>
<path fill="#FFFFFF" d="M316.1,183.4c-7.7-5.9-17.8-8.6-29.3-7.7c-3.1,0.3-5.9,0.7-8.1,1.2c-3.3,0.1-6.7,0.6-9.8,1.6
	c-5.9-14.7-20.1-24.4-36-24.4c-16.8,0-31.7,10.9-36.9,26.8c-0.4,0-0.9,0-1.2,0c-14.7,0-26.6,12-26.6,26.6c0,2.7,0.5,5.4,1.2,8h-2.4
	c-14.5,0-26.3,11.8-26.3,26.3c0,5.3,1.5,10.5,4.6,14.9c0.3,0.5,0.9,0.8,1.4,0.8c0.5,0,0.7-0.1,1-0.3c0.8-0.6,1-1.7,0.5-2.4
	c-2.6-3.9-4-8.3-4-12.9c0-12.6,10.2-22.8,22.8-22.8h4.9c0.6,0,1.2-0.3,1.5-0.8c0.3-0.5,0.4-1.2,0.1-1.7c-1.2-2.8-1.9-5.9-1.9-8.9
	c0-12.8,10.4-23.2,23.2-23.2c0.8,0,1.5,0.1,2.3,0.1c0.8,0.1,1.6-0.5,1.9-1.2c4.2-15.1,18.1-25.6,33.9-25.6c15,0,28.4,9.5,33.3,23.7
	c0.3,0.9,1.2,1.4,2.2,1.1c3.7-1.4,7.7-1.9,11.6-1.9l0.1-1.5c8.6-1.8,23.2-2.8,34.8,6.1c23.6,18.2,18.7,28,18.7,28.1
	c-0.3,0.6-0.1,1.4,0.5,1.7c0.2,0.1,0.4,0.1,0.6,0.1c0.4,0,0.8-0.2,1-0.6C335.7,214.1,341.6,203.1,316.1,183.4z"/>
<polygon fill="#009ED4" points="653.4,300.7 653.4,267.1 629.4,267.2 629.6,286 626.3,286 626.3,191.6 595.9,191.5 595.9,265.3 
	582.1,263.8 581.6,227.1 581,227.1 578.3,227.1 578.2,199 560.1,199 560,226.6 551.8,226.6 551.8,207.7 524.3,207.4 524.2,152.5 
	500.2,152.5 500.2,248.7 496.8,241.3 496.7,224.8 496.2,215.4 496.2,193.5 495.2,193.3 495.2,193.3 495.2,192.2 494.1,192 494,192 
	494,190.9 493,190.6 492.8,190.6 492.8,189.7 491.9,189.4 491.8,189.4 491.8,188.2 490.7,188 486.6,188 485.5,188.2 485.5,189.4 
	485.5,189.4 484.5,189.7 484.5,190.6 484.5,190.6 483.4,190.9 483.4,192 483.3,192 482.3,192.2 482.3,193.3 482.1,193.3 
	481.2,193.5 481.2,215.4 480.7,224.8 480.7,247.6 474.9,252.5 474.7,174.3 464.6,175.9 464.6,227 459.4,227.2 459.5,198.9 
	459.2,198.9 459.1,198.9 459.1,198.9 459,198.9 451,181.3 442.8,181.3 435,199.1 434.9,199.1 434.8,199.1 434.8,199.1 433.9,199.2 
	433.9,199.2 433.8,199.3 434.8,267 432.9,267 432.8,286 431.4,286 431.4,280.3 430.7,280.3 431.4,249 431.4,210.9 430,210.7 
	430,197.8 417.5,197.8 417.5,210.7 416.1,210.9 416.1,249 416.8,280.3 413.8,280.3 413.9,254.6 405.5,254.5 405.5,255.9 
	405.4,255.9 402.1,255.9 402.1,250 401.1,249.9 401.1,242.7 399.8,242.7 395.1,242.5 395.1,238.7 391,238.7 391,245.2 391,245.2 
	390.1,245.3 390.1,251.9 389.1,252 389.1,254.9 388.9,254.9 388.1,254.9 388.1,252.3 386.6,252.3 386.6,249.8 386.3,249.8 
	384.6,249.8 384.6,237.7 377.2,238.2 377.2,252.3 376.5,252.3 376.5,286 376.4,286 376.4,270.9 373,270.9 372.9,252.8 371.2,242.9 
	371.1,210.3 370.2,207.5 370.2,177.4 369.4,175.6 368.6,175.4 368.6,174.1 368.6,173.9 368,173.8 368,172.6 368,172.3 367.3,172.1 
	367.3,170.2 367.3,170 366.6,169.8 359.2,169.8 358.5,170 358.5,170.2 358.5,172.1 357.7,172.3 357.7,172.7 357.7,173.8 
	357.2,173.9 357.2,174.2 357.2,175.4 356.4,175.6 355.7,177.4 355.6,207.5 354.7,210.3 354.7,238.4 354.5,238.4 350.4,255.9 
	350.2,257.6 350,204.6 349.9,193.5 328.5,193.4 328.3,245.1 320.3,245 319.9,245.1 319.9,247.4 319.7,247.4 315,248.1 315,254.6 
	311.7,254 309.2,254.1 309.2,239.7 309.2,203.5 285,203.6 285,261.7 282.6,261.9 282.6,262.7 279.3,260.7 279.1,161.7 265.5,161.7 
	265.5,147.6 251.1,147.6 251.1,162 251.1,275.3 250.3,275.4 249.4,275.6 249.3,242.7 242.2,242.3 242,250.7 240.4,250.8 
	240.2,216.5 239.3,203 234.3,175.5 218.9,175.4 213.6,205.6 213,216.5 212.8,248.2 208.2,248.1 206.8,154.2 176.7,154.2 
	177.1,247.7 175.9,247.7 175.9,243.2 175.9,243.2 175.9,243.1 175.9,243.1 175.8,243.1 174.1,243 174.1,238.9 174.1,238.8 
	174.1,238.7 174,238.7 173.8,238.7 173.7,238.7 171.9,238.6 171.9,235.2 171.9,235.1 171.8,235.1 171.7,235 171.6,234.8 
	171.5,234.8 165.1,234.3 165.1,234 165.1,233.9 165.1,233.9 165.1,233.7 165.1,233.4 165.1,233 165.1,232.8 165.1,232.4 
	165.1,232.1 165.1,231.7 165.1,231.5 165.1,231.3 165.1,231.3 164.8,231.3 164.6,230.1 159.9,230.1 159.9,234.3 153.6,234.8 
	153.6,234.8 153.5,235 153.6,238.6 151.6,238.6 151.5,238.7 151.5,238.7 151.5,238.7 151.6,243 149.6,243.1 149.5,243.1 
	149.4,243.1 149.4,243.1 149.4,243.2 149.5,247.7 148.2,247.7 147.8,247.7 147.7,247.7 147.6,247.7 147.6,247.7 147.5,247.7 
	147.5,247.7 147.5,247.7 147.6,252.8 145.8,252.8 146.3,279.1 143.9,279.5 144,286 138.6,286 138.6,302.5 653.4,302.5 "/>
<rect x="138.8" y="302.5" fill="#8CC63F" width="514.8" height="7.5"/>
<rect x="222.4" y="269.1" fill="#FFDE17" width="31.7" height="33.3"/>
<polygon fill="#6DCEF5" points="298.2,302.9 259.2,302.9 260.3,256.6 299.2,256.6 "/>
<rect x="409.6" y="269.1" fill="#6DCEF5" width="32.4" height="33.2"/>
<rect x="341.3" y="241.6" fill="#EC1E24" width="45.6" height="60.7"/>
<rect x="477.1" y="251.9" fill="#EC1E24" width="43.2" height="50.5"/>
<polygon fill="#EC1E24" points="214.4,270.5 262.1,270.5 237.2,245.8 "/>
<polygon fill="#EC1E24" points="402.5,269.7 450,269.7 424.7,244.3 "/>
<polygon fill="#FFDE17" points="385.2,215.9 356.1,215.9 357.3,212.3 349.5,210.3 347.8,215.9 343,215.9 336.3,241.6 391.8,241.6 
	"/>
<polygon fill="#FFDE17" points="297.1,236.9 273.3,236.9 273.3,231.5 266.2,231.5 266.3,236.9 262.4,236.9 257,258 302.5,258 "/>
<polygon fill="#FFDE17" points="520.8,230.7 514.2,230.7 514.2,222.9 506.3,222.9 506.3,230.7 476.7,230.7 472.8,251.7 524.7,251.7 
	"/>
<circle fill="#8CC63F" cx="214.1" cy="282.1" r="9.4"/>
<circle fill="#8CC63F" cx="323.5" cy="276.4" r="11.4"/>
<ellipse fill="#8CC63F" cx="397.7" cy="272.7" rx="10.8" ry="14.4"/>
<circle fill="#8CC63F" cx="588.9" cy="264.6" r="17.7"/>
<polygon fill="#39B54A" points="192.2,286 210.2,286 201.2,251.7 "/>
<polygon fill="#7AC943" points="460.9,289.2 476.8,289.2 468.8,264.6 "/>
<polygon fill="#7AC943" points="295.6,289.2 316.4,289.2 305.9,251.7 "/>
<polygon fill="#39B54A" points="317.1,284.5 341.1,284.5 329.1,238.7 "/>
<polygon fill="#39B54A" points="444.9,284.5 468.9,284.5 456.9,238.7 "/>
<polygon fill="#39B54A" points="559.5,284.5 583.5,284.5 571.5,238.7 "/>
<rect x="527.6" y="267.1" fill="#6DCEF5" width="35" height="35.3"/>
<polygon fill="#EC1E24" points="521.1,268.9 568.7,268.9 543.9,244.2 "/>
<g>
	<rect x="228.1" y="276" fill="#FFFFFF" width="7.1" height="6.9"/>
	<rect x="241.5" y="276" fill="#FFFFFF" width="7.1" height="6.9"/>
	<rect x="241.5" y="289.2" fill="#FFFFFF" width="7.1" height="6.9"/>
	<rect x="227.8" y="289.2" fill="#FFFFFF" width="7.1" height="13.1"/>
</g>
<g>
	<rect x="415.5" y="276" fill="#FFFFFF" width="7.1" height="6.9"/>
	<rect x="429" y="276" fill="#FFFFFF" width="7.1" height="6.9"/>
	<rect x="429" y="289.2" fill="#FFFFFF" width="7.1" height="6.9"/>
	<rect x="415.1" y="289.2" fill="#FFFFFF" width="7.1" height="13.1"/>
</g>
<g>
	<rect x="547.9" y="276" fill="#FFFFFF" width="7.1" height="6.9"/>
	<rect x="534.5" y="276" fill="#FFFFFF" width="7.1" height="6.9"/>
	<rect x="534.5" y="289.2" fill="#FFFFFF" width="7.1" height="6.9"/>
	<rect x="548.2" y="289.2" fill="#FFFFFF" width="7.1" height="13.1"/>
</g>
<g>
	<rect x="346.5" y="276" fill="#FFFFFF" width="7.1" height="6.9"/>
	<rect x="359.9" y="276" fill="#FFFFFF" width="7.1" height="6.9"/>
	<rect x="359.9" y="289.3" fill="#FFFFFF" width="7.1" height="6.9"/>
	<rect x="374.4" y="276" fill="#FFFFFF" width="7.1" height="6.9"/>
	<rect x="346.5" y="262.2" fill="#FFFFFF" width="7.1" height="6.9"/>
	<rect x="359.9" y="262.2" fill="#FFFFFF" width="7.1" height="6.9"/>
	<rect x="374.4" y="262.2" fill="#FFFFFF" width="7.1" height="6.9"/>
	<rect x="346.5" y="247.3" fill="#FFFFFF" width="7.1" height="6.9"/>
	<rect x="359.9" y="247.3" fill="#FFFFFF" width="7.1" height="6.9"/>
	<rect x="374.4" y="247.3" fill="#FFFFFF" width="7.1" height="6.9"/>
	<rect x="374.4" y="289.3" fill="#FFFFFF" width="7.1" height="6.9"/>
	<rect x="346.1" y="289.3" fill="#FFFFFF" width="7.1" height="13.1"/>
</g>
<g>
	<rect x="481.4" y="273.3" fill="#FFFFFF" width="7.1" height="6.9"/>
	<rect x="494.8" y="273.3" fill="#FFFFFF" width="7.1" height="6.9"/>
	<rect x="494.8" y="289.3" fill="#FFFFFF" width="7.1" height="6.9"/>
	<rect x="509.4" y="273.3" fill="#FFFFFF" width="7.1" height="6.9"/>
	<rect x="481.4" y="258.8" fill="#FFFFFF" width="7.1" height="6.9"/>
	<rect x="494.8" y="258.8" fill="#FFFFFF" width="7.1" height="6.9"/>
	<rect x="509.4" y="258.8" fill="#FFFFFF" width="7.1" height="6.9"/>
	<rect x="509.4" y="289.3" fill="#FFFFFF" width="7.1" height="6.9"/>
	<rect x="481" y="289.3" fill="#FFFFFF" width="7.1" height="13.1"/>
</g>
<g>
	<rect x="268" y="276" fill="#FFFFFF" width="7.1" height="6.9"/>
	<rect x="268" y="289.3" fill="#FFFFFF" width="7.1" height="6.9"/>
	<rect x="282.6" y="276" fill="#FFFFFF" width="7.1" height="6.9"/>
	<rect x="268" y="262.2" fill="#FFFFFF" width="7.1" height="6.9"/>
	<rect x="282.6" y="262.2" fill="#FFFFFF" width="7.1" height="6.9"/>
	<rect x="282.6" y="289.3" fill="#FFFFFF" width="7.1" height="6.9"/>
</g>
<rect x="199.9" y="286" fill="#906342" width="2.6" height="16.2"/>
<rect x="329.1" y="284.4" fill="#906342" width="2.6" height="18.1"/>
<rect x="213.2" y="291.3" fill="#906342" width="2.4" height="11"/>
<rect x="322.3" y="287.8" fill="#906342" width="2.4" height="14.6"/>
<rect x="304.8" y="289.2" fill="#906342" width="2.4" height="13.2"/>
<rect x="396.7" y="287.1" fill="#906342" width="1.8" height="15.4"/>
<rect x="455" y="283.9" fill="#906342" width="1.7" height="18.5"/>
<rect x="467.6" y="289.2" fill="#906342" width="1.7" height="13.3"/>
<rect x="569.7" y="284.5" fill="#906342" width="2.4" height="18"/>
<rect x="588.3" y="282.2" fill="#906342" width="2.4" height="20.1"/>
</svg>
