<?xml version="1.0" encoding="utf-8"?>
<!-- Generator: Adobe Illustrator 18.1.0, SVG Export Plug-In . SVG Version: 6.00 Build 0)  -->
<svg version="1.1" id="Layer_3" xmlns="http://www.w3.org/2000/svg" xmlns:xlink="http://www.w3.org/1999/xlink" x="0px" y="0px"
	 viewBox="0 0 792 612" enable-background="new 0 0 792 612" xml:space="preserve">
<g>
	<g>
		<g>
			<g>
				<g>
					<defs>
						<rect id="SVGID_1_" x="159.1" y="323.6" width="446.8" height="150.1"/>
					</defs>
					<clipPath id="SVGID_2_">
						<use xlink:href="#SVGID_1_"  overflow="visible"/>
					</clipPath>
					<g clip-path="url(#SVGID_2_)">
						<ellipse fill="#39C6F4" cx="206.6" cy="343.8" rx="34.2" ry="30.8"/>
						<ellipse fill="#39C6F4" cx="557.8" cy="432" rx="34.2" ry="30.8"/>
						<ellipse fill="#39C6F4" cx="240.6" cy="404.6" rx="50.6" ry="45.4"/>
						<ellipse fill="#39C6F4" cx="343.5" cy="377" rx="71.3" ry="64"/>
						<ellipse fill="#39C6F4" cx="445.8" cy="411" rx="48.8" ry="43.8"/>
						<ellipse fill="#39C6F4" cx="530.5" cy="359.3" rx="62.2" ry="55.9"/>
						<g>
							<g>
								<g>
									<path fill="#009ED4" d="M192,361.3L192,361.3L192,361.3L192,361.3z"/>
								</g>
							</g>
						</g>
					</g>
				</g>
			</g>
		</g>
	</g>
</g>
<line fill="none" stroke="#009ED4" stroke-width="6" stroke-miterlimit="10" x1="127.8" y1="322.5" x2="642.5" y2="322.5"/>
<g>
	<g>
		<g>
			<g>
				<g>
					<defs>
						<rect id="SVGID_3_" x="159.1" y="154.1" width="446.8" height="167.2"/>
					</defs>
					<clipPath id="SVGID_4_">
						<use xlink:href="#SVGID_3_"  overflow="visible"/>
					</clipPath>
					<g clip-path="url(#SVGID_4_)">
						<circle fill="#FFFFFF" stroke="#6DCEF5" stroke-width="3" stroke-miterlimit="10" cx="206.6" cy="298.8" r="34.2"/>
						<circle fill="#FFFFFF" stroke="#6DCEF5" stroke-width="3" stroke-miterlimit="10" cx="557.8" cy="200.7" r="34.2"/>
						<circle fill="#FFDE17" stroke="#6DCEF5" stroke-width="3" stroke-miterlimit="10" cx="240.6" cy="231.1" r="50.6"/>
						<circle fill="#ED1F24" stroke="#6DCEF5" stroke-width="3" stroke-miterlimit="10" cx="343.5" cy="261.8" r="71.2"/>
						<circle fill="#39B54A" stroke="#6DCEF5" stroke-width="3" stroke-miterlimit="10" cx="445.8" cy="224" r="48.7"/>
						<circle fill="#009ED4" stroke="#6DCEF5" stroke-width="3" stroke-miterlimit="10" cx="530.5" cy="281.5" r="62.2"/>
						<path fill="#FFFFFF" d="M236.6,244.5c3.3,1.9,1.5,7,5.5,9.1c3.8,2.1,7.8,0.3,11.3,4c-0.1-2.3-0.2-4.1-1.9-5.7
							c-1.3-1.2-3.3-1.7-4.4-3.3c-1.9-2.9-1.9-9.3-7.7-6.7c0.1,1.4-1,2.6-2.4,2.6"/>
						<path fill="#FFFFFF" d="M234.5,243.9c1.5,0.3,7.3-2.4,5-4.6c-1.2-1.2-2.4,1.4-3,2C235.4,242.1,233.2,241.6,234.5,243.9"/>
						<g>
							<path fill="#FFFFFF" d="M252,205.4c-11-3.2-25,2.8-31.5,12.1c-0.3,0.3-0.5,0.7-0.6,1l18,18.1c1.3-0.5,2.3-0.6,2.3-0.6
								c5.2-1.3,7.4,3.1,11.8,4.6c5.1,1.8,8.6-0.6,11.8-4.9C271.6,225.3,263.9,208.8,252,205.4z M230.7,219.3
								c-1.9,0-3.3-1.4-3.3-3.1s1.5-3.1,3.3-3.1c1.9,0,3.3,1.4,3.3,3.1S232.6,219.3,230.7,219.3z M243.9,214.9
								c-1.9,0-3.3-1.4-3.3-3.1s1.5-3.1,3.3-3.1s3.3,1.4,3.3,3.1C247.3,213.6,245.8,214.9,243.9,214.9z M253,216.6
								c0-2.2,1.7-4,3.9-4s3.9,1.8,3.9,4c0,2.3-1.7,4-3.9,4C254.6,220.6,253,218.8,253,216.6z M260.4,232.7c-2.2,0-4-1.8-4-3.9
								c0-2.2,1.8-3.9,4-3.9s4,1.7,4,3.9C264.6,231,262.8,232.7,260.4,232.7z"/>
							<path fill="#FFFFFF" d="M232.3,241.7l-16.7-16.3c-2.8,7.2-3,16.2,0.6,22.8c2.4,4.2,8.5,11.8,15.1,7.1c3-2.2,0-7.3,0-7.3
								C230.8,245.1,231.4,243.2,232.3,241.7z M219,240.7c-1.4,0-2.6-1.2-2.6-2.8s1.2-2.8,2.6-2.8s2.6,1.3,2.6,2.8
								S220.4,240.7,219,240.7z"/>
							<path fill="#FFFFFF" d="M236.4,237.5l-18-18.1l-8-8c-4.6-1.9-4.3,3-4.3,3l10,9.8l16.7,16.3l1.1,1.1c3.8-0.5,3.5-3,3.5-3
								L236.4,237.5z"/>
						</g>
						<g>
							<path fill="#FFFFFF" d="M443.6,230.2h-12l-3.1,10.4h-6.4l11.6-36h8.9l10.8,36h-6.9L443.6,230.2z M442.3,225.4l-4.4-16.2
								l-4.8,16.2H442.3z"/>
							<path fill="#FFFFFF" d="M466.6,226.6v-2c0-2.4-1.5-3.7-4.4-3.7c-2.8,0-4.6,0.9-5.2,2.7h-4.6c0.2-4.1,3.5-6.2,9.8-6.2
								c3.2,0,5.4,0.7,6.8,2c1.4,1.4,2.1,3.6,2.1,6.7v15.1h-4.4v-2.3c-2,1.9-4.2,2.7-6.9,2.7c-2.5,0-4.6-0.6-6.1-1.9
								c-1.5-1.3-2.3-3-2.3-5.2c0-2.4,0.9-4.4,2.8-5.8c1.9-1.4,4.4-2.2,7.5-2.2L466.6,226.6L466.6,226.6z M466.6,230.1H461
								c-1.5,0-2.8,0.4-3.8,1.2c-1,0.8-1.4,1.7-1.4,3c0,1.2,0.4,2.1,1.2,2.8c0.8,0.8,1.7,1.2,3,1.2c1.9,0,3.5-0.6,4.8-1.9
								c1.4-1.2,2-2.8,2-4.6L466.6,230.1L466.6,230.1z"/>
						</g>
						<g>
							<rect x="416.4" y="239.8" fill="#FFFFFF" width="58.8" height="2.1"/>
							<rect x="416.4" y="218.4" fill="#FFFFFF" width="58.8" height="2.1"/>
							<rect x="416.4" y="242.7" fill="#FFFFFF" width="58.8" height="2.1"/>
							<rect x="416.4" y="203.2" fill="#FFFFFF" width="58.8" height="2.1"/>
						</g>
						<g>
							<g>
								<g>
									<path fill="#009ED4" d="M225.4,313.6l-5.1,5L187,284.1l5-4.8l0.1-0.1L225.4,313.6L225.4,313.6z M192,279.3L192,279.3
										L192,279.3L192,279.3z M225,313.7L192,279.5l-4.7,4.6l33.1,34.2L225,313.7L225,313.7z"/>
									<path fill="#009ED4" d="M186.6,284.1l5.2-5l0.3-0.3l33.5,34.6l-0.2,0.2l0.2-0.2l0.1,0.1l-5.5,5.3L186.6,284.1L186.6,284.1z
										 M188.4,284.2L220,317l3.9-3.8l-31.7-32.8L188.4,284.2L188.4,284.2z"/>
								</g>
								<g>
									<polygon fill="#009ED4" points="222,310.2 219.4,312.7 219.3,312.5 221.8,310.1 									"/>
								</g>
								<g>
									<polygon fill="#009ED4" points="218.2,306.4 215.7,308.8 215.6,308.6 218.1,306.3 									"/>
								</g>
								<g>
									<polygon fill="#009ED4" points="214.2,302.3 211.8,304.7 211.6,304.6 214.1,302.1 									"/>
								</g>
								<g>
									<polygon fill="#009ED4" points="210.8,298.7 208.3,301.1 208.1,301 210.7,298.5 									"/>
								</g>
								<g>
									<polygon fill="#009ED4" points="207,294.9 204.6,297.2 204.4,297.1 207,294.7 									"/>
								</g>
								<g>
									<polygon fill="#009ED4" points="203.1,290.7 200.6,293.2 200.4,293 203,290.6 									"/>
								</g>
								<g>
									<polygon fill="#009ED4" points="199.3,286.8 196.8,289.3 196.7,289.1 199.2,286.7 									"/>
								</g>
								<g>
									<polygon fill="#009ED4" points="195.6,283 193.1,285.4 192.9,285.3 195.4,282.8 									"/>
								</g>
							</g>
							<g>
								<g>
									<g>
										<path fill="#009ED4" d="M199,313.8l23.6-23.3l0,0c0.1-0.1,0.2-0.1,0.3-0.3c2.3-2.2,2.6-5.4,0.9-7.1
											c-1.7-1.7-4.9-1.4-7.1,0.9c-0.1,0.1-0.3,0.3-0.5,0.5l-23.4,23.1L199,313.8z"/>
									</g>
								</g>
								<g>
									<g>
										<polygon fill="#009ED4" points="219.4,288.5 220.3,289.5 197.3,312.3 196.3,311.3 										"/>
									</g>
								</g>
								<g>
									<g>
										<polygon fill="#009ED4" points="217.3,286.4 218.3,287.4 195.3,310.2 194.3,309.2 										"/>
									</g>
								</g>
								<g>
									<g>
										<polygon fill="#009ED4" points="187.6,318.9 189.7,313.7 191.7,308.2 195,311.5 198.3,314.9 192.9,316.8 										"/>
									</g>
								</g>
							</g>
						</g>
						<path id="path1458" fill="#FFFFFF" d="M527.4,321.1c-16.6-1.2-31.2-14.3-35.3-30.2c-3.8-16.5,3.7-35.1,18.5-43.7
							c9.5-5.7,21.4-6.4,31.9-3.4c12.9,4,22.8,15.6,26.3,28.4c3.1,11.9,0.9,25.4-7.4,34.8c-7.5,9.4-19.4,14.7-31.4,14.3
							C529,321.2,528.2,321.2,527.4,321.1z M537.3,319.3c3-0.3,2.4-1.2-0.3-1.4c-4.8-0.9-10.1-1-14.7,0.7c4.1,2,9.6,1.5,14.2,0.9
							L537.3,319.3L537.3,319.3z M522.6,316.6c2.1-2.2-0.1-7.4-2-9.5c-4.1-2.1-7.3-5.7-11.2-8.2c-2.8-1-5.7,0.9-8.4,1.6
							c0,2.7-0.2,5.9,2.2,7.8c4,3.9,8.8,7.3,14.2,8.9C519.1,317.3,521,317.2,522.6,316.6z M545.4,316.7c6.9-3,13.4-7.8,17.2-14.3
							c1.4-1.9,2.4-5.1-1.2-4.1c-4.6,2.9-8.8,6.5-13.4,9.3c-2.8,2.3-4.9,5.4-6.9,8.4C541.7,317.6,544,317.2,545.4,316.7z M550,304.7
							c3.5-2.8,8.5-4.7,10.3-9c0.8-3.4,0.9-6.9,1.2-10.4c-3.5-3.1-7.7-5.1-11.8-7.1c-4.1,0.3-7.4,4-10.7,6.4c-1.7,1-1.3,3.1-1.8,4.8
							c-0.6,3.9-1.4,7.7-1.8,11.6c3.2,2.4,6.8,4.6,10.7,5.5C547.8,306.4,548.9,305.4,550,304.7z M525.4,305.3
							c3.2-1.2,7.3-2.1,8.8-5.4c1.1-4.6,1.7-9.5,2.3-14.2c-3.2-3-6.4-6.1-10.6-7.7c-3.5-0.1-6.5,2.4-9.7,3.8c-4.2,1.2-5.7,5-5.9,8.9
							c-1.2,3.9,0.2,8,3.7,10.2C517.1,303.2,521.2,306.9,525.4,305.3z M499,299.8c-2.5-4.7-4.3-9.9-5-15.2c-2.5,0.5-0.3,6.7,0.5,9.3
							c1.2,3.4,3,6.6,4.9,9.6C499.8,302.2,500,300.9,499,299.8z M498,278.8c1.2-1.6,2.9-2.8,3.5-4.6c1.2-5.5,3.1-10.8,5.9-15.8
							c-0.1-3.2-3.7-5.1-5.4-1.6c-5,6.5-8.9,14.4-9.1,22.8c-0.6,2.8,1.8,5,3.3,1.5C496.7,280.3,497.3,279.5,498,278.8z M562.7,282.7
							c2.1-2.8,5.1-6.2,4.3-9.9c-1.4-7.2-5-14-10.7-18.7c-1.7-0.7-4.8-3.3-5.9-0.8c-1.7,3.3-6,6.5-4.5,10.7
							c1.4,4.1,2.3,8.4,4.2,12.3c3.6,2.8,7.7,5,11.8,6.8L562.7,282.7L562.7,282.7z M515.2,280.8c3.3-1.7,6.5-3.5,9.7-5.3
							c1.1-3.8,2.4-7.5,3.7-11.3c0.1-4-3.4-6.9-5.9-9.8c-2.4-3.8-6.4-0.9-9.3,0.5c-6.4,3.4-7.9,11-10,17.3c0.3,2.4,2.4,4.4,4,6.1
							C509.7,280.6,512.1,283.5,515.2,280.8z M538.8,260.4c1.7-0.3,3.6-0.1,5.2-0.6c2.4-2.6,4.4-5.5,5.4-8.9c-1.2-3.3-5.1-5-8.3-6
							c-4-1.2-8.4-1.8-12.5-1.4c-3,1.5-8.4,6-5.4,9.5c2.3,2.7,4.6,5.2,7.1,7.7C533.2,260.8,536,260.6,538.8,260.4z"/>
						<path fill="#FFFFFF" d="M359.8,248.3v14.9c1.7,0,2.5,0.6,2.5,1.7c0,0.6-0.1,1-0.3,1.2c-0.3,0.2-0.8,0.3-1.6,0.3l-3.2,15.8
							c4.8-1.9,8.4-3.7,11.1-5.1c3.2-1.7,5.7-3.6,7.7-5.7c2-2.1,3.2-4.4,3.5-7.1v-18.5c0-2.7-1.2-5-3.6-6.9s-5.6-3.5-9.5-4.8
							c-3.5-1.2-7.5-2-12-2.6c-2.1-0.3-4.1-0.5-5.8-0.6s-3.4-0.3-5.1-0.3c-2.8,0-6.2,0.3-10.2,0.8c-4.2,0.5-8.1,1.2-11.7,2.3
							c-4.1,1.2-7.4,2.9-10,4.9c-2.6,2-3.9,4.4-3.9,7.1v18.5c0.3,2,1,3.8,2.2,5.5c1.2,1.7,3,3.3,5.2,4.8c1.9,1.4,4.1,2.6,6.5,3.8
							c2,1,4.9,2.3,8.8,3.9l-3.2-15.8c-0.9,0-1.4-0.1-1.7-0.2c-0.2-0.1-0.4-0.6-0.5-1.2c0-0.7,0.2-1.2,0.6-1.4s1.1-0.4,2.1-0.4
							v-14.9L359.8,248.3L359.8,248.3z M343.6,227.6L343.6,227.6c-1.7,0-3.4,0.1-5.2,0.3c-1.8,0.2-4,0.5-6.6,0.8
							c-5,0.6-9.5,1.6-13.3,2.8c-4.2,1.4-7.8,3-10.4,5c-2.8,2.3-4.2,5-4.2,8v20.7c0.3,2.7,1.4,5.1,3.2,7.3s4.1,4.1,6.8,5.8
							c2,1.2,4.8,2.7,8.4,4.2c3,1.2,5.9,2.5,8.9,3.7l1,4.6c-3-1.2-5.9-2.5-8.9-3.8c-4.2-1.8-7.6-3.5-10.2-4.9
							c-3.6-2-6.6-4.1-8.9-6.4c-2.6-2.5-4-5.1-4.2-7.7v-22c0-4.7,2.6-8.8,8-12c5.3-3.3,11.5-5.7,18.3-7.3c6.9-1.5,12.8-2.4,17.6-2.4
							c3.5,0,7.7,0.5,12.5,1.4c4.9,0.9,9.6,2.2,14.1,3.9c5.2,2,9.3,4.2,12.4,6.8c3.3,2.8,5,6.1,5,9.8v22c0,2.8-1.2,5.3-3.8,7.7
							c-2.3,2.2-5.9,4.6-10.8,7.1c-3.5,1.8-7.5,3.6-11.8,5.4c-2,0.8-4,1.6-5.9,2.4l1-4.6c2.8-1.2,5.7-2.4,8.5-3.6
							c3.6-1.6,6.5-3.1,8.6-4.4c2.8-1.8,5.1-3.7,6.8-5.7c1-1.2,1.8-2.4,2.3-3.6s0.8-2.4,0.8-3.8v-20.7c0-3.1-1.4-5.7-4.4-7.9
							c-2.7-2.1-6.3-3.8-10.8-5.3c-4-1.3-8.2-2.3-12.8-2.8C350.7,227.9,346.8,227.6,343.6,227.6L343.6,227.6z M356.9,263.2
							L356.9,263.2h-26.3v-12.9h26.3V263.2L356.9,263.2z M352.9,306.2L352.9,306.2h-18.3l-2.6-12.7c-5-2-8.2-3.3-9.8-4
							c-4.8-2.1-8.9-4.1-12.2-5.9c-4.4-2.5-7.9-5-10.2-7.3c-2.5-2.5-3.7-5.2-3.7-8v-23c0-5.2,2.8-9.6,8.4-13.1
							c5.3-3.3,12-5.9,19.8-7.9c6.9-1.7,13.4-2.6,19.4-2.6c4.1,0,8.6,0.5,13.4,1.4c5.7,1,10.9,2.4,15.6,4.2
							c5.4,2.1,9.8,4.6,13.3,7.6c3.4,3,5.1,6.5,5.1,10.4v23c0,2.8-1.2,5.5-3.6,8c-2.3,2.3-5.7,4.8-10.2,7.3c-3.4,1.9-7.6,3.9-12.4,6
							c-0.5,0.3-3.7,1.5-9.5,3.9L352.9,306.2L352.9,306.2z M332.1,266.6L332.1,266.6l0.9,5.4h-2.4l-1.4-5.4H332.1L332.1,266.6z
							 M355.4,266.6L355.4,266.6h2.6l-1,5.4h-2.7L355.4,266.6L355.4,266.6z M333.3,274.4L333.3,274.4l0.8,5.1h-2.1l-1-5.1H333.3
							L333.3,274.4z M354,274.4L354,274.4h2.8l-1.1,5.1H353L354,274.4L354,274.4z M334.5,281.6L334.5,281.6l1.1,5h-1.9l-1.2-5H334.5
							L334.5,281.6z M352.6,281.6L352.6,281.6h2.6l-1.2,5h-2.5L352.6,281.6L352.6,281.6z M336.2,288.8L336.2,288.8h-2.3l1.4,6.4h2.2
							L336.2,288.8L336.2,288.8z M351.1,288.8L351.1,288.8l-1.4,6.4h2.6l1.2-6.4H351.1L351.1,288.8z M338,297.2L338,297.2h-2.4
							l1.1,5.7h2.5L338,297.2L338,297.2z M349.6,297.2L349.6,297.2l-1.2,5.7h2.5l1.1-5.7H349.6L349.6,297.2z M334.9,266.6
							L334.9,266.6h5.1l0.4,5.4h-4.7L334.9,266.6L334.9,266.6z M353.1,266.6L353.1,266.6L352,272h-4.9l0.4-5.4H353.1L353.1,266.6z
							 M336,274.4L336,274.4h4.5l0.4,5.1h-4.2L336,274.4L336,274.4z M351.7,274.4L351.7,274.4l-0.7,5.1h-4.4l0.4-5.1H351.7
							L351.7,274.4z M337.1,281.6L337.1,281.6h4l0.4,5h-3.4L337.1,281.6L337.1,281.6z M350.3,281.6L350.3,281.6l-0.8,5h-3.5l0.4-5
							H350.3L350.3,281.6z M341.6,288.8L341.6,288.8h-3.3l1.4,6.4h2.4L341.6,288.8L341.6,288.8z M345.8,288.8L345.8,288.8l-0.3,6.4
							h2.5l1.2-6.4H345.8L345.8,288.8z M342.3,297.2L342.3,297.2H340l0.9,5.7h1.9L342.3,297.2L342.3,297.2z M345.4,297.2
							L345.4,297.2l-0.4,5.7h1.7l0.9-5.7H345.4L345.4,297.2z M342.1,266.6L342.1,266.6h3.5l-0.4,5.4h-2.6L342.1,266.6L342.1,266.6z
							 M344.9,274.4L344.9,274.4l-0.4,5.1h-1.2l-0.4-5.1H344.9L344.9,274.4z M344.3,281.6L344.3,281.6l-0.6,5l-0.4-5H344.3
							L344.3,281.6z"/>
						<g>
							<path fill="#009ED4" d="M572.3,185.4H543c-2,0-3.6,1.7-3.6,3.7v12.6v4.1v4.9h36.6v-4.9v-4.1v-12.6
								C575.9,187,574.4,185.4,572.3,185.4z M573,208.1h-30.5v-19.4H573V208.1z"/>
							<path fill="#009ED4" d="M564.1,212.2c0,0.5-0.2,0.9-0.5,0.9h-11.7c-0.3,0-0.5-0.4-0.5-0.9h-16.4v1.9c0.3,1,1.2,1.7,2.3,1.7
								h41c1.1,0,2-0.7,2.3-1.7v-1.9H564.1z"/>
						</g>
					</g>
				</g>
			</g>
		</g>
	</g>
</g>
</svg>
