<?xml version="1.0" encoding="utf-8"?>
<!-- Generator: Adobe Illustrator 18.1.0, SVG Export Plug-In . SVG Version: 6.00 Build 0)  -->
<svg version="1.1" id="Layer_2" xmlns="http://www.w3.org/2000/svg" xmlns:xlink="http://www.w3.org/1999/xlink" x="0px" y="0px"
	 viewBox="0 0 792 612" enable-background="new 0 0 792 612" xml:space="preserve">
<g>
	<g>
		<g>
			<g>
				<defs>
					<rect id="SVGID_1_" x="135" y="312.9" width="524.3" height="178.2"/>
				</defs>
				<clipPath id="SVGID_2_">
					<use xlink:href="#SVGID_1_"  overflow="visible"/>
				</clipPath>
				<polygon clip-path="url(#SVGID_2_)" fill="#39C6F4" points="1109,313 142.7,313 142.7,327.9 152.8,327.9 152.6,333.7 157,334 
					156.3,357.7 159.5,357.7 159.3,362.3 159.3,362.3 159.3,362.3 159.5,362.3 159.6,362.3 159.8,362.3 160,362.3 160.6,362.3 
					163.1,362.3 163,366.4 163,366.4 163,366.4 163.1,366.5 163.3,366.5 166.9,366.5 166.8,370.3 166.8,370.4 166.9,370.4 
					167,370.5 170.7,370.5 170.7,373.8 170.7,373.9 170.8,373.9 182.7,374.3 182.6,378.3 191.6,378.2 191.8,377.1 192.2,377.1 
					192.2,377 192.2,376.8 192.2,376.6 192.3,376.4 192.3,376.1 192.3,375.8 192.3,375.5 192.3,375.2 192.3,374.9 192.3,374.8 
					192.3,374.7 192.3,374.7 192.3,374.3 204.5,373.9 204.7,373.9 205,373.8 205,373.6 205.2,373.6 205.2,373.5 205.2,370.5 
					208.5,370.4 208.8,370.4 209,370.4 209.2,370.3 209.3,370.3 209.3,370.2 209.3,366.5 212.4,366.5 212.6,366.4 212.7,366.4 
					212.8,366.4 212.8,366.4 212.8,362.3 214.8,362.3 213.7,437.8 213.7,447.4 213.7,448.6 274.1,448.2 274,438.5 273.4,362 
					281.9,361.8 282.2,390.4 282.3,392.2 282.3,392.9 282.6,395.2 282.9,397.7 283.4,400.1 284,402.6 284.6,405 285.1,406.2 
					285.5,407.4 285.9,408.6 286.4,409.8 286.9,410.9 287.4,412.2 288,413.3 288.6,414.5 289.2,415.7 289.9,416.9 290.6,418 
					290.4,419.8 291.3,419.8 291.3,420.4 291.4,421 291.5,421.7 291.7,422.3 291.8,423 292,423.6 292.2,424.2 292.4,424.9 
					292.6,425.5 292.8,426.1 293.1,426.8 293.3,427.4 322.3,427.3 322.6,426.7 322.9,426.1 323.1,425.4 323.4,424.8 323.6,424.1 
					323.7,423.5 323.9,422.8 324,422.2 324.2,421.6 324.3,420.9 324.4,420.3 324.4,419.8 325.4,419.8 325.4,419.6 325.3,419.6 
					325.2,419.3 324.9,418.8 324.7,418.6 325.8,416.7 327.1,414.4 328.2,412 329.2,409.7 330.2,407.3 331,404.9 331.7,402.5 
					332.3,400.1 332.7,397.6 333.1,395.2 333.3,393.1 333.4,392.7 333.4,392.5 333.4,390.3 333.7,359.5 334.3,362.2 335.2,364.5 
					336.1,366 337.1,367.1 339.9,367.2 346.1,366.9 347.1,365.8 348.2,364.3 349,362 349.8,359 350.4,355.5 350.7,337.2 
					352.4,337.4 353.7,337.5 353.9,439.3 354,452.4 354.4,453.2 356.6,454 360.6,454.7 365.9,455.2 372.5,455.6 379.6,455.7 
					381,449.5 381,442 384.3,442 391.3,441.8 397.3,441.4 402.1,440.9 405.2,440.4 406.5,439.7 406.7,350.6 413,348.8 413,349.6 
					417.4,349.7 417.4,402 458.7,402.6 459.2,402.3 459.2,400 459.2,400 462.8,397.2 462.8,369.4 462.9,369.4 463,356.5 
					467.7,356.6 473.7,356.1 473.7,361.8 482.6,362.6 483,362.6 483,364.6 483.7,364.7 498.8,364.5 498.3,392.9 498.2,395.3 
					498.1,401.1 499.1,401.1 499.1,403.3 499,407.6 511.2,407.5 511.2,408 512.8,408 513.5,407.5 524.5,407.5 524.5,408 526.1,408 
					526.5,407.5 539.3,407.5 539.3,403.2 539.3,401 539.5,401 539.5,395.3 539.5,392.9 539.8,353.4 540.1,354.9 540.1,368.8 
					540.2,369.1 540.8,369.1 540.8,369.5 540.9,369.7 541.5,369.8 541.5,370 541.7,370.2 542.2,370.2 542.2,370.5 542.3,370.7 
					542.9,370.7 542.9,371 543,371.2 543.3,371.2 547.6,371.2 547.9,371.2 547.9,370.7 547.9,370.7 548.2,370.7 548.3,396 
					549.9,398.4 550.1,425.6 551.5,427.3 552.9,427.4 553,428.4 553,428.7 553.9,428.8 553.9,429.9 553.9,430.1 555.4,430.2 
					555.4,432.1 555.4,432.3 556.6,432.4 570.7,432.4 572,432.3 572,432.1 572,430.2 573.4,430.1 573.4,429.9 573.4,428.8 
					574.4,428.7 574.4,428.4 574.4,427.4 575.9,427.3 577.3,425.6 577.4,398.4 579,396 579.2,366.5 582.5,357.7 582.6,341.4 
					589,341.4 589,327.9 589.2,327.9 589.2,358.2 590.6,358.2 590.5,370.9 604.6,371.3 604.6,360.4 607.6,360.4 608.2,360.4 
					608.2,358.2 610.9,358.1 610.9,355.8 611.1,355.8 611.7,355.8 612.4,355.8 613,355.8 612.9,358.4 614.6,358.4 614.6,364.5 
					616.2,364.5 616.2,364.5 616.2,370.4 620.5,370.5 624.1,370.4 624.1,366.9 625.9,366.9 628.3,366.9 628.8,366.9 629.4,366.9 
					629.9,366.9 630.4,366.9 630.8,366.9 631.3,366.9 631.7,366.9 632.1,366.9 632.5,366.9 632.6,366.9 632.9,366.9 633.1,366.9 
					635.4,366.9 635.4,360.2 637.2,360.2 637.2,354.9 639.8,354.9 643.5,354.9 643.5,354.8 643.5,356.2 645.5,356.2 659.3,356.1 
					659.2,333.1 664.8,333.1 664.9,361.1 663.7,361.1 663.7,395.4 666.2,395.6 666.3,407.1 669.1,407.5 669.3,407.6 669.6,407.7 
					669.9,407.7 670.2,407.9 670.7,407.9 671.2,408 671.7,408 672.2,408 672.9,408.1 673.5,408.2 674.2,408.2 674.9,408.2 
					677.9,408.6 680.9,408.2 681.7,408.2 682.3,408.2 683,408.1 683.6,408 684.2,408 684.8,408 685.2,407.9 685.7,407.9 
					686.1,407.7 686.4,407.7 686.6,407.5 686.8,407.5 689.7,407.1 689.7,395.6 692.2,395.4 692.3,361.1 691,361.1 691,333 
					692.3,333 692.2,327.9 695,327.9 695.1,345 698.5,345 698.7,382.1 698.5,382.1 698.5,382.1 698.5,385.4 698.2,385.5 
					697.7,385.5 697.3,385.5 696.9,385.5 696.7,385.5 696.6,385.5 696.7,405.8 696.8,405.9 697,405.9 697.3,406 697.8,406.1 
					698.2,406.1 698.7,406.1 698.7,406.1 698.9,406.1 699,406.1 713.6,422 729.1,422.1 744.1,406.2 744.2,406.2 744.3,406.2 
					744.4,406.2 744.9,406.2 745.4,406.2 745.8,406.1 746.2,406.1 746.3,406.1 746.3,406 746.3,406 746.8,385.7 746.7,385.6 
					746.4,385.5 746,385.5 745.6,385.5 745.1,385.5 744.7,385.5 744.8,382.2 744.7,382.2 744.8,380.8 754.7,380.9 754.4,426.8 
					754.9,430.4 773.7,428.3 773.8,410.2 773.9,358 775.8,358 775.8,358.2 778.7,358.2 778.7,358.4 781.2,358.4 781.2,358.5 
					782.5,358.5 784.8,362.4 784.8,382.8 785.6,391.4 785.6,411.1 787.4,411.2 787.7,411.2 787.7,412.2 789.7,412.4 789.7,412.4 
					789.7,413.4 791.7,413.6 791.8,413.6 791.8,414.5 793.8,414.7 793.8,414.7 793.8,415.8 795.8,416 803.6,416 805.5,415.8 
					805.6,414.7 805.7,414.7 807.6,414.5 807.6,413.6 807.8,413.6 809.7,413.4 809.8,412.4 810,412.4 811.9,412.2 811.9,411.2 
					812,411.2 813.7,411.1 813.9,391.4 814.9,382.8 815.1,368.1 821.6,361.4 822.9,442.1 822.9,443.3 823.4,443.7 823.4,444.9 
					823.5,446.3 823.6,447.9 824.7,448.8 827.3,449.6 860.6,449.9 861.9,449.7 866.6,445.1 866.5,443.5 866.5,442 866.5,441 
					867,440.5 866.7,398.5 913.5,398.7 918.4,398.3 918.2,381.3 920.4,381.3 927.4,381.3 933.4,381.3 934,381.3 933.9,406.1 
					933.8,410.1 933.8,410.9 935.2,411.1 966.3,411.2 967.6,411.1 967.6,410.2 967.6,406.2 967.9,380.8 973.1,380.8 974.3,380.8 
					974.3,377.2 974.9,377.2 975.3,347.8 977,347.8 977.5,347.8 979.4,347.8 980.9,347.8 982.1,347.8 982.8,347.8 982.8,347.7 
					987.6,347.8 987.6,347.2 1001,346.4 1002.5,411.9 1003,412.2 1003.9,412.4 1005.4,412.6 1007.1,412.6 1009,412.7 1050.5,412.7 
					1052.5,412.6 1054.3,412.6 1055.8,412.4 1057,412.2 1057.9,412 1058.2,411.7 1057.7,327.9 1064.1,327.9 1064.1,344.3 
					1069,344.3 1079,344.3 1078.8,385.5 1078.9,385.7 1079.3,385.7 1079.3,386.7 1079.4,386.9 1082.8,387.2 1103.9,387.2 
					1109,386.7 1109,314.7 				"/>
			</g>
		</g>
	</g>
</g>
<g>
	<g>
		<g>
			<g>
				<g>
					<defs>
						<rect id="SVGID_3_" x="135" y="136.3" width="524.3" height="178.2"/>
					</defs>
					<clipPath id="SVGID_4_">
						<use xlink:href="#SVGID_3_"  overflow="visible"/>
					</clipPath>
					<polygon clip-path="url(#SVGID_4_)" fill="#009ED4" points="1109,312.5 1109,233 1103.9,232.4 1082.8,232.4 1079.4,232.7 
						1079.3,233 1079.3,234.1 1078.9,234.1 1078.8,234.4 1079,279.7 1069,279.7 1064.1,279.8 1064.1,297.9 1057.7,297.9 
						1058.2,205.3 1057.9,205.1 1057,204.8 1055.8,204.6 1054.3,204.4 1052.5,204.4 1050.5,204.3 1009,204.3 1007.1,204.4 
						1005.4,204.4 1003.9,204.6 1003,204.8 1002.5,205.2 1001,277.4 987.6,276.6 987.6,276 982.8,276.1 982.8,275.9 982.1,275.9 
						980.9,275.9 979.4,276 977.5,276 977,276 975.3,275.9 974.9,243.4 974.3,243.4 974.3,239.5 973.1,239.5 967.9,239.5 
						967.6,211.5 967.6,207 967.6,206.1 966.3,206 935.2,206.1 933.8,206.2 933.8,207.2 933.9,211.6 934,239 933.4,239 927.4,238.9 
						920.4,238.9 918.2,238.9 918.4,220.1 913.5,219.8 866.7,220 867,173.6 866.5,173 866.5,171.9 866.5,170.3 866.6,168.6 
						861.9,163.5 860.6,163.3 827.3,163.6 824.7,164.4 823.6,165.4 823.5,167.2 823.4,168.8 823.4,170.1 822.9,170.5 822.9,171.8 
						821.6,260.9 815.1,253.5 814.9,237.3 813.9,227.8 813.7,206.1 812,205.9 811.9,205.9 811.9,204.8 810,204.6 809.8,204.6 
						809.7,203.5 807.8,203.3 807.6,203.3 807.6,202.3 805.7,202.1 805.6,202.1 805.5,200.9 803.6,200.6 795.8,200.6 793.8,200.9 
						793.8,202.1 793.8,202.1 791.8,202.3 791.8,203.3 791.7,203.3 789.7,203.5 789.7,204.6 789.7,204.6 787.7,204.8 787.7,205.9 
						787.4,205.9 785.6,206.1 785.6,227.8 784.8,237.3 784.8,259.9 782.5,264.1 781.2,264.2 781.2,264.2 778.7,264.3 778.7,264.5 
						775.8,264.5 775.8,264.7 773.9,264.7 773.8,207.1 773.7,187.1 754.9,184.8 754.4,188.7 754.7,239.4 744.8,239.5 744.7,238 
						744.8,238 744.7,234.3 745.1,234.3 745.6,234.3 746,234.3 746.4,234.2 746.7,234.2 746.8,234.1 746.3,211.7 746.3,211.7 
						746.3,211.7 746.2,211.6 745.8,211.5 745.4,211.5 744.9,211.5 744.4,211.5 744.3,211.5 744.2,211.5 744.1,211.5 729.1,194 
						713.6,194 699,211.6 698.9,211.6 698.7,211.6 698.7,211.6 698.2,211.6 697.8,211.7 697.3,211.7 697,211.8 696.8,211.8 
						696.7,211.9 696.6,234.2 696.7,234.3 696.9,234.3 697.3,234.4 697.7,234.4 698.2,234.4 698.5,234.4 698.5,238 698.5,238.1 
						698.7,238.1 698.5,279 695.1,279 695,297.9 692.2,297.9 692.3,292.2 691,292.2 691,261.3 692.3,261.3 692.2,223.4 689.7,223.2 
						689.7,210.4 686.8,210 686.6,210 686.4,209.9 686.1,209.8 685.7,209.7 685.2,209.6 684.8,209.5 684.2,209.5 683.6,209.4 
						683,209.3 682.3,209.3 681.7,209.3 680.9,209.2 677.9,208.8 674.9,209.2 674.2,209.3 673.5,209.3 672.9,209.3 672.2,209.4 
						671.7,209.5 671.2,209.5 670.7,209.6 670.2,209.7 669.9,209.8 669.6,209.9 669.3,209.9 669.1,210 666.3,210.4 666.2,223.2 
						663.7,223.4 663.7,261.3 664.9,261.3 664.8,292.2 659.2,292.2 659.3,266.9 645.5,266.6 643.5,266.7 643.5,268.2 643.5,268.2 
						639.8,268.1 637.2,268.2 637.2,262.2 635.4,262.2 635.4,254.9 633.1,254.9 632.9,254.9 632.6,254.9 632.5,254.9 632.1,254.8 
						631.7,254.8 631.3,254.8 630.8,254.8 630.4,254.8 629.9,254.8 629.4,254.8 628.8,254.8 628.3,254.8 625.9,254.8 624.1,254.8 
						624.1,251 620.5,250.8 616.2,251 616.2,257.5 616.2,257.5 614.6,257.5 614.6,264.2 612.9,264.2 613,267.1 612.4,267.1 
						611.7,267.1 611.1,267.1 610.9,267.1 610.9,264.5 608.2,264.5 608.2,262 607.6,262 604.6,262.1 604.6,250 590.5,250.5 
						590.6,264.5 589.2,264.5 589.2,297.9 589,297.9 589,283 582.6,283 582.5,265.1 579.2,255.2 579,222.8 577.4,220.1 577.3,190.1 
						575.9,188.2 574.4,188.1 574.4,186.9 574.4,186.6 573.4,186.6 573.4,185.3 573.4,185.1 572,184.9 572,183 572,182.7 
						570.7,182.5 556.6,182.6 555.4,182.7 555.4,183 555.4,184.9 553.9,185.1 553.9,185.4 553.9,186.6 553,186.6 553,186.9 
						552.9,188.1 551.5,188.2 550.1,190.2 549.9,220.1 548.3,222.8 548.2,250.7 547.9,250.6 547.9,250.6 547.9,250.1 547.6,250.1 
						543.3,250.1 543,250.1 542.9,250.3 542.9,250.6 542.3,250.6 542.2,250.8 542.2,251.2 541.7,251.2 541.5,251.4 541.5,251.7 
						540.9,251.7 540.8,252 540.8,252.5 540.2,252.5 540.1,252.8 540.1,268.1 539.8,269.8 539.3,210 499,209.9 498.8,257.4 
						483,257.4 483,259.7 473.7,260.4 473.7,266.8 463,266.3 462.9,252.1 462.8,252 462.8,221.4 459.2,215.8 458.7,215.4 
						417.4,216.1 417.4,273.9 413,273.9 413,274.8 406.7,272.8 406.5,174.5 405.2,173.8 402.1,173.1 397.3,172.5 391.3,172.1 
						384.3,171.9 381,171.9 381,163.6 379.6,156.8 372.5,157 365.9,157.3 360.6,158 356.6,158.7 354.4,159.6 354,160.5 353.9,174.9 
						353.7,287.4 352.4,287.5 350.7,287.7 350.4,267.4 349.8,263.6 349,260.3 348.2,257.7 347.1,256.1 346.1,254.9 339.9,254.6 
						337.1,254.6 336.1,255.8 335.2,257.5 334.3,260 333.7,262.9 333.4,229 333.4,226.6 333.4,226.3 333.3,225.9 333.1,223.6 
						332.7,220.9 332.3,218.2 331.7,215.6 331,212.9 330.2,210.2 329.2,207.6 328.2,205 327.1,202.4 325.8,199.8 324.7,197.8 
						324.9,197.6 325.2,197 325.3,196.7 325.4,196.6 325.4,196.5 324.4,196.5 324.4,196 324.3,195.2 324.2,194.5 324,193.8 
						323.9,193.1 323.7,192.4 323.6,191.6 323.4,190.9 323.1,190.2 322.9,189.6 322.6,188.9 322.3,188.2 293.3,188.1 293.1,188.7 
						292.8,189.5 292.6,190.2 292.4,190.9 292.2,191.6 292,192.3 291.8,193 291.7,193.7 291.5,194.4 291.4,195.1 291.3,195.8 
						291.3,196.5 290.4,196.5 290.6,198.5 289.9,199.7 289.2,201 288.6,202.3 288,203.6 287.4,204.9 286.9,206.2 286.4,207.5 
						285.9,208.8 285.5,210.2 285.1,211.5 284.6,212.8 284,215.4 283.4,218.2 282.9,220.9 282.6,223.6 282.3,226.3 282.3,227 
						282.2,229 281.9,260.5 273.4,260.3 274,175.9 274.1,165.1 213.7,164.7 213.7,166 213.7,176.6 214.8,259.9 212.8,259.9 
						212.8,255.5 212.8,255.4 212.7,255.4 212.6,255.4 212.4,255.3 209.3,255.3 209.3,251.2 209.3,251.2 209.2,251.1 209,251 
						208.8,251 208.5,251 205.2,250.8 205.2,247.6 205.2,247.5 205,247.4 205,247.3 204.7,247.2 204.5,247.1 192.3,246.7 
						192.3,246.3 192.3,246.3 192.3,246.1 192.3,246 192.3,245.7 192.3,245.4 192.3,245.1 192.3,244.7 192.3,244.4 192.2,244.1 
						192.2,243.9 192.2,243.7 192.2,243.6 191.8,243.6 191.6,242.3 182.6,242.3 182.7,246.7 170.8,247.1 170.7,247.2 170.7,247.3 
						170.7,250.8 167,250.9 166.9,251 166.8,251 166.8,251 166.9,255.3 163.3,255.3 163.1,255.3 163,255.4 163,255.4 163,255.4 
						163.1,259.9 160.6,259.9 160,259.9 159.8,259.9 159.6,260 159.5,260 159.3,260 159.3,260 159.3,260 159.5,265 156.3,265.1 
						157,291.1 152.6,291.5 152.8,297.9 142.7,297.9 142.7,314.4 1109,314.4 					"/>
				</g>
			</g>
		</g>
	</g>
	<g>
		<g>
			<g>
				<path fill="#494949" d="M216.9,313.7c0.8,0,2.8-0.3,3.2-0.8c0,0-0.1-0.6-0.3-1.4c-0.7-0.5-1.7-0.7-3-0.7c-1.2,0-2.3,0.3-3,0.7
					c-0.1,0.8-0.1,1.4-0.1,1.4C214.2,313.5,216,313.7,216.9,313.7z"/>
				<path fill="#1C1C1C" d="M214.4,307.3L214.4,307.3c0-0.3,0-0.6,0.1-0.9c0.5-0.6,0.4-2.1,0.4-2.1v0.1c0-0.1,0-0.1,0-0.1h3.8
					c0,0.1,0,0.1,0,0.1v-0.1c0,0-0.1,1.4,0.3,2.1c0.3,0.5,0.2,1.2,0.1,1.5c0.1,0.9,0.5,2.4,0.6,3.5c-0.7-0.5-1.8-0.7-3-0.7
					s-2.3,0.3-3,0.7C214,310,214.4,307.8,214.4,307.3z"/>
				<path fill="#1C1C1C" d="M216.9,313.5c0,0-2.3,0.1-3.2-0.6v2.1c0.6,0.3,3.2,0.4,3.2,0.4s2.6,0,3.2-0.4v-2.1
					C219.1,313.5,216.9,313.5,216.9,313.5z"/>
			</g>
			<g>
				<path fill="#515151" d="M223.1,249.7c-5.1,0-12,0.6-12,0.6c-0.9,5.4-0.8,9.7,0.9,27.9c0.3,2.4-1.5,19.2,0.6,28.8h8
					c0,0,1.7-11.3,0.3-29c-0.1-1.3,0.5-5.5,0.7-6.8c0.6-6.3,0.6-11,0.8-12.5c0.1-0.3,0.8-0.1,0.9-0.1l0.1-1.2v-7.9
					C223.3,249.7,223.2,249.7,223.1,249.7z"/>
			</g>
			<g>
				<path fill="#39B54A" d="M190.8,223.7l5.5,6.5c0.5-0.3,1-0.7,1.6-1.2c3.3-2.7,9.9-7,9.9-7l8.4-3.2l-6.3-5.2
					C209.7,213.8,208,213.8,190.8,223.7z"/>
			</g>
			<g>
				<path fill="#494949" d="M229.9,313.7c-0.8,0-2.8-0.3-3.2-0.8c0,0,0.1-0.6,0.3-1.4c0.7-0.5,1.8-0.7,3-0.7c1.2,0,2.3,0.3,3,0.7
					c0.1,0.8,0.1,1.4,0.1,1.4C232.6,313.5,230.8,313.7,229.9,313.7z"/>
				<path fill="#1C1C1C" d="M232.4,307.3L232.4,307.3c0-0.3,0-0.6-0.1-0.9c-0.5-0.6-0.4-2.1-0.4-2.1v0.1c0-0.1,0-0.1,0-0.1h-3.8
					c0,0.1,0,0.1,0,0.1v-0.1c0,0,0.1,1.4-0.3,2.1c-0.3,0.5-0.2,1.2-0.1,1.5c-0.1,0.9-0.5,2.4-0.6,3.5c0.7-0.5,1.8-0.7,3-0.7
					c1.2,0,2.3,0.3,3,0.7C232.8,310,232.5,307.8,232.4,307.3z"/>
				<path fill="#1C1C1C" d="M229.9,313.5c0,0,2.3,0.1,3.2-0.6v2.1c-0.6,0.3-3.2,0.4-3.2,0.4s-2.6,0-3.2-0.4v-2.1
					C227.7,313.5,229.9,313.5,229.9,313.5z"/>
			</g>
			<path fill="#BD814E" d="M241.8,253.7c0,0-0.9,1.2-1.5,2c-0.5,0.8-0.4,3.2-0.4,3.7c0,0.5,0.7,0.8,0.9-0.1c0.3-1.2,0.5-1.9,0.5-1.9
				s0.8,0.5,2.3,1.3c1.5,0.9,1.2,1.1,2.1,1c1-0.1,0.5,0.5,1-1c0.5-1.5-3.3-5-3.3-5L241.8,253.7L241.8,253.7z"/>
			<polygon fill="#E6E7E8" points="240.5,253.7 240.5,255 244.9,255 244.9,253.5 			"/>
			<path fill="#39B54A" d="M237.1,213.8c0,0,7.3,4.4,7.9,28.9c0.3,8.9,0.2,11.5,0.2,11.5l-5.3,0.1c0,0-0.4-10.4-0.9-15.2
				c-0.4-4.2-4.4-13.1-4.4-13.1L237.1,213.8z"/>
			<g>
				<path fill="#262626" d="M223.7,249.7c5.1,0,11.5,0.6,11.5,0.6c0.9,5.4,1.2,9.7-0.5,27.9c-0.3,2.4,2.3,16.6-0.1,28.8H226
					c0,0-1.7-11.3-0.3-29c0.1-1.3-0.5-5.5-0.7-6.8c-0.6-6.3-0.6-10.9-0.8-12.4c-0.1-0.3-0.8-0.3-0.9-0.3v-9
					C223.5,249.7,223.6,249.7,223.7,249.7z"/>
			</g>
			<polygon fill="#39B54A" points="237.1,213.8 227.2,212.4 223.5,213.2 223.5,246.7 235.2,246.7 234.6,233.9 236.5,218.9 			"/>
			<path fill="#BD814E" d="M223.5,204.5L223.5,204.5v9.3l0,0c2.4,0,3.7,0,3.7,0l-0.5-10L223.5,204.5z"/>
			<path fill="#C9996F" d="M223.5,204.5L223.5,204.5v9.3l0,0c-2.4,0-3.7-0.3-3.7-0.3l0.5-9.7L223.5,204.5z"/>
			<path fill="#BD814E" d="M230.3,198.8c-0.1,0-0.3,0-0.4,0c0.5-7.5-4.3-8.1-5.9-8c-1.7-0.1-7.2,0.5-6.8,8c-0.1,0-0.3,0-0.4,0
				c-0.9,0-1.5,1-1.2,2.5c0.2,1.5,0.9,2.6,1.8,2.6c0.1,0,0.1,0,0.1,0c0.1,1.4,0.3,2.6,0.6,3.2c0.6,0.9,2.4,2.1,5.4,2.4v0.1
				c0.1,0,0.3,0,0.5-0.1c0.2,0,0.4,0.1,0.6,0.1v-0.1c2.1-0.3,3.9-1.4,4.4-2.3c0.3-0.5,0.5-1.8,0.6-3.2c0.1,0,0.1,0,0.1,0
				c0.9,0,1.6-1.2,1.8-2.6C231.7,199.8,231.2,198.8,230.3,198.8z"/>
			<polygon fill="#39B54A" points="223.6,220.9 223.5,212.5 219.1,212.1 219.1,212.4 209.7,213.8 212.2,233.9 211.2,246.7 
				223.5,246.7 223.6,233.7 			"/>
			<polygon fill="#1C1C1C" points="224.3,215.6 223.5,215.6 223.5,245.1 226.7,235.7 			"/>
			<polygon fill="#1C1C1C" points="222.7,215.6 223.5,215.6 223.5,245.1 220.4,235.7 			"/>
			<path fill="#6C3F26" d="M231,188.3c-2.4,1.7-10.8,0-11.9,2.7l0,0c-0.8-0.1-2.6,0-2.9,2c-0.1,1.5,0.1,3.2,0.4,4.8
				c0.3,2,1,3.1,1,3.1s0.5-2.5,0.6-3.3c0.1-0.7,0.3-1.8,0.5-2.8c0.5,0.3,1.9,1,4.8,1.4c1.4,0.2,3.2,0.4,5.2,0.4
				c0.1,0.4,0.1,0.8,0.2,1c0.1,0.8,0.6,3.3,0.6,3.3s1.2-1.8,1.2-5.1c0-1.1,0-1.7,0-1.7l-0.1-0.1c0-0.1,0-0.2-0.1-0.3
				C232.8,191.7,231,188.3,231,188.3z"/>
			<rect x="211.2" y="246.7" fill="#FFDE17" width="24.1" height="3.7"/>
			<rect x="214.2" y="246.7" fill="#39B54A" width="1.8" height="3.7"/>
			<rect x="228.8" y="246.7" fill="#39B54A" width="1.8" height="3.7"/>
			<path fill="#1C1C1C" d="M226.3,246.1h-5.4c-0.3,0-0.5,0.2-0.5,0.5v3.9c0,0.3,0.2,0.5,0.5,0.5h5.4c0.3,0,0.5-0.2,0.5-0.5v-3.9
				C226.7,246.3,226.5,246.1,226.3,246.1z M225.8,249.9c0,0.1-0.1,0.3-0.3,0.3h-3.8c-0.1,0-0.3-0.1-0.3-0.3v-2.8
				c0-0.1,0.1-0.3,0.3-0.3h3.8c0.1,0,0.3,0.1,0.3,0.3V249.9z"/>
			<polygon fill="#262626" points="222.7,215.6 221.5,212 223.5,212.4 223.5,215.6 			"/>
			<polygon fill="#1C1C1C" points="224.3,215.6 225.6,212 223.5,212.4 223.5,215.6 			"/>
			<path fill="#9EE4F2" d="M223.5,212.4c0,0,2.3-0.8,3.6-1.5l1.7,1.8l-2.8,4L223.5,212.4z"/>
			<path fill="#9EE4F2" d="M223.5,212.4c0,0-2.3-0.8-3.6-1.5l-1.7,1.8l2.8,4L223.5,212.4z"/>
		</g>
		<g>
			<path fill="#BD814E" d="M211.3,227.4c1.2,3.1,1.2,6,1.9,12c0.1,0.8-2.8,1.6-3.1,0.8c-2-5.1-2.6-8.9-2.8-13.3
				C207.3,226,211,226.5,211.3,227.4z"/>
			<g>
				<polygon fill="#C9996F" points="192.2,218.5 186.9,219.2 186.9,224.9 196,229.4 196,218.5 				"/>
				<polygon fill="#BD814E" points="204.1,224.9 204.1,219.1 199.8,218.5 196,218.5 196,229.4 204.7,233.9 				"/>
			</g>
			<g>
				<path fill="#6C3F26" d="M186.6,206.2c0,2.1,0,8.6,0,8.6h9.3v-18.5C190.8,196.7,186.6,201,186.6,206.2z"/>
			</g>
			<g>
				<path fill="#6C3F26" d="M205.3,206.2c0,2.1,0,8.6,0,8.6H196v-18.5C201.2,196.7,205.3,201,205.3,206.2z"/>
			</g>
			<path fill="#C9996F" d="M196,212.2h-3.8v6c0,2.6,3.8,3.3,3.8,3.3v-3.3l0,0V212.2z"/>
			<path fill="#BD814E" d="M196.5,257.4h-0.8v-9.3l6,0.2c0,0,7.5-2.1,3.3,19.9c-0.9,4.9-2.1,7-2.8,10.2c-0.8,3.9,0.1,6.6-0.1,10
				c-0.5,9.5-2.3,19.5-2.3,19.5h-1.7c0,0-1.7-11.7-1.7-19.6c0-3.4,0.5-4.8,0.5-9.6c0-4.4-0.7-8-0.7-11.5
				C196.4,260.9,196.5,261.4,196.5,257.4z"/>
			<path fill="#BD814E" d="M195.4,257.4h0.8l-0.5-10l-5.6-0.6c0,0-7.5-2-3.3,21.4c0.9,4.9,2.1,7,2.8,10.2c0.8,3.9-0.1,6.6,0.1,10
				c0.5,9.6,2.3,19.6,2.3,19.6h1.7c0,0,1.8-11.7,1.8-19.6c0-3.4-0.5-4.8-0.5-9.6c0-4.4,0.7-8,0.7-11.5
				C195.6,260.9,195.4,261.4,195.4,257.4z"/>
			<rect x="196" y="212.2" fill="#BD814E" width="3.8" height="6"/>
			<path fill="#BD814E" d="M196,216.3c0,0,1.7,0.1,2.8-1c0.6-0.6,2.7-1.2,2.7-3.6c0-2.4,0.3-4.8,0.3-6.3c0.1-1.5,0.4-5.3-3.3-5.3
				c-2.3,0-2.4,0-2.4,0L196,216.3L196,216.3z"/>
			<path fill="#BD814E" d="M201.3,206.8c0,0,0.7-0.8,1.2-0.8c0.5,0,0.8,0.8,0.8,1.2c0.1,0.5-0.6,2.4-0.7,2.7
				c-0.1,0.3-0.6,0.7-0.9,0.3C201.1,209.3,201.3,206.8,201.3,206.8z"/>
			<path fill="#BD814E" d="M190.6,206.8c0,0-0.7-0.8-1.2-0.8c-0.5,0-0.8,0.8-0.8,1.2c-0.1,0.5,0.6,2.4,0.7,2.7
				c0.1,0.3,0.6,0.7,0.9,0.3C190.9,209.3,190.6,206.8,190.6,206.8z"/>
			<path fill="#BD814E" d="M196,216.3c0,0-1.7,0.1-2.8-1c-0.6-0.6-2.7-1.2-2.7-3.6c0-2.4-0.3-4.8-0.3-6.3s-0.4-5.3,3.3-5.3
				c2.3,0,2.4,0,2.4,0L196,216.3L196,216.3z"/>
			<path fill="#6C3F26" d="M198.4,201.2c0,0-3.2,4.8-8.2,5c0,0-1.6-4.4,1.6-6.5c3.3-2.1,6.7,0,6.7,0L198.4,201.2z"/>
			<path fill="#6C3F26" d="M198.4,201.2c0,0,2.4,4.9,3.2,5.2c0,0,1.1-0.5,1-1.9c-0.1-1.4-1.5-5.9-3.9-5.5
				C196.4,199.6,198,200.5,198.4,201.2z"/>
			<path fill="#BD814E" d="M196,217.8v3.8c0,0,3.8-0.8,3.8-3.4L196,217.8z"/>
			<path fill="#009ED4" d="M189.5,205.9c0,0-1-4.1,3.1-6.3c1.4-0.8,3.8-1.2,6.4,0.1c0,0,3.4,1.5,3.4,6.2c0,0,0.2,0.1,0.3,0.1
				c0,0,0.5-7.7-6.9-7.7c-2.6,0-7.1,1.5-6.6,7.7L189.5,205.9z"/>
			<path fill="#FDD09E" d="M195.2,310.8c0,0-0.6-3.3-0.8-4.7l-1.7-0.1v5.9C192.7,311.9,194.5,312.1,195.2,310.8z"/>
			<path fill="#FDD09E" d="M190.2,310.8c0,0,0.5-3.7,0.8-5l1.7,0.3v5.9C192.7,311.9,190.9,312.1,190.2,310.8z"/>
			<path fill="#E24512" d="M192.7,311.8c-1.8,0-2.5-1-2.5-1v3.8c0.5,0.6,2.5,0.6,2.5,0.6s2.1-0.1,2.5-0.6v-3.8
				C195.2,310.8,194.5,311.8,192.7,311.8z"/>
			<path fill="#FDD09E" d="M194.3,301.8c0,0-0.1,2.6,0.2,3.2c0.3,0.6,0,1.7,0,1.7l-1-0.3L194.3,301.8z"/>
			<path fill="#FDD09E" d="M191.1,301.8c0,0,0.1,2.6-0.2,3.2c-0.3,0.6,0,1.7,0,1.7l1-0.3L191.1,301.8z"/>
			<path fill="#FDC486" d="M196.7,310.8c0,0,0.6-3.3,0.8-4.7l1.7-0.1v5.9C199.2,311.9,197.4,312.1,196.7,310.8z"/>
			<path fill="#FDC486" d="M201.8,310.8c0,0-0.5-3.7-0.8-5l-1.7,0.3v5.9C199.2,311.9,201,312.1,201.8,310.8z"/>
			<path fill="#E24512" d="M199.2,311.8c-1.8,0-2.5-1-2.5-1v3.8c0.5,0.6,2.5,0.6,2.5,0.6s2.1-0.1,2.5-0.6v-3.8
				C201.8,310.8,201,311.8,199.2,311.8z"/>
			<g>
				<path fill="#E24512" d="M192.7,308.2c0,0-1.2,0-2.2,0.4l-0.2,1.3c0,0,0.5-0.5,2.4-0.5s2.4,0.5,2.4,0.5l-0.2-1.3
					C193.9,308.2,192.7,308.2,192.7,308.2z"/>
				<path fill="#E24512" d="M201.4,308.6c-1-0.4-2.2-0.4-2.2-0.4s-1.2,0-2.2,0.4l-0.2,1.3c0,0,0.5-0.5,2.4-0.5s2.4,0.5,2.4,0.5
					L201.4,308.6z"/>
			</g>
			<path fill="#FDC486" d="M197.6,301.8c0,0,0.1,2.6-0.2,3.2c-0.3,0.6,0,1.7,0,1.7l1-0.3L197.6,301.8z"/>
			<path fill="#FDC486" d="M200.8,301.8c0,0-0.1,2.6,0.2,3.2c0.4,0.6,0,1.7,0,1.7l-1-0.3L200.8,301.8z"/>
			<g>
				<path fill="#E24512" d="M192.7,306.3c0,0-1,0-1.9,0.3l-0.1,1.1c0,0,0.5-0.4,2-0.4s2,0.4,2,0.4l-0.1-1.1
					C193.7,306.3,192.7,306.3,192.7,306.3z"/>
				<path fill="#E24512" d="M201.2,306.6c-0.8-0.3-1.9-0.3-1.9-0.3s-1,0-1.9,0.3l-0.1,1.1c0,0,0.5-0.4,2-0.4s2,0.4,2,0.4
					L201.2,306.6z"/>
			</g>
			<path fill="#E64E9D" d="M203.7,219.1l0.6,9.6l2.6-0.1l1,3.8l4.7-0.5c-0.7-6.4-2.3-9.7-2.8-10.4
				C208.4,219.4,205.7,219.4,203.7,219.1z"/>
			<path fill="#BD814E" d="M180.5,228.1c-1,3.2-0.6,3.3-0.9,9.3c-0.1,0.8,2.8,5.1,3,4.3c1.5-5.3,2-9.8,1.9-14.2
				C184.4,226.4,180.8,227.1,180.5,228.1z"/>
			<path fill="#E24512" d="M203.9,244.1v-9.6c0.6-0.3,1-0.6,1.4-1c1.7-2.7-0.1-4.9-0.1-9.5c0,0-3,2.1-9.1,2.1
				c-3.7-0.1-7-1.3-8.4-1.9l-0.1-5.1c-1.9,0.5-4.6,0.7-5.9,2.8c-0.5,0.8-1.8,4.2-2,10.7l4.7,0.1l0.7-3.9l1.2-0.1
				c-0.3,1.7-0.5,3.1,0.5,4.6c0.3,0.5,0.8,0.8,1.3,1l-0.1,9.7c-5.1,8.2-4.4,27.7-4.4,27.7s3.7,2.6,12.5,2.6l0,0
				c9.5,0,12.5-2.6,12.5-2.6S209.2,252.3,203.9,244.1z"/>
			<g>
				<g>
					<path fill="#009ED4" d="M214,238.2l2-0.4c0.9-3-0.1-7.1-1.4-9.4c-1.1-1.9-4.2-3.7-6.4-4.5l-6.1,13.9c1,0.4,2.3,2.2,0.4,4
						c-3.3,3.1-1.7,6.8-0.3,7.4c0.7,0.3,2.1-0.8,0.8-3.7c0,0,6-2.1,6.8-7.8c0.3-1.7,0.3-3.3,0.9-4.4
						C212.5,230.1,211.4,235.4,214,238.2z"/>
				</g>
				<path fill="#BD814E" d="M214.2,238.6c0,0-0.3,0.5-0.5,1c-0.2,0.5,0.4,0.9,0.8,0.3c0.1-0.1,0.1-0.2,0.2-0.3
					c0.1-0.1,0.3,0.8,0.5,1c0.4,0.5,1.4,0.1,1.7-0.5c0.2-0.4,0.1-1.8-0.7-2.4L214.2,238.6z"/>
				<path fill="#E64E9D" d="M216.4,237.3c0,0,0.3,0.3,0.1,0.7l-2.3,0.6c0,0-0.5-0.2-0.3-0.6L216.4,237.3z"/>
				<g>
					<path fill="#009ED4" d="M193.9,229.3l-1.1-1.7c1.5-2.6,5.3-4.8,7.9-5.3c2.2-0.5,5.5,0.6,7.7,1.7l-4.9,13.4l-1.2,0.5
						c-1-0.5-3.2-0.3-3,2.3c0.3,5.4-3.2,6.3-4.6,5.7c-1.4-0.6-1.6-3,1.4-4c0,0-2.4-5.2,1.2-9.6c1.1-1.4,2.2-2.4,2.6-3.6
						C200.9,225,197.7,229.4,193.9,229.3z"/>
				</g>
				<path fill="#BD814E" d="M193.5,229.5c0,0-0.2,0.5-0.5,1s-0.9,0.3-0.8-0.3c0-0.1,0.1-0.3,0.1-0.3s-0.7,0.4-1.1,0.3
					c-0.6,0-1-1-0.8-1.5c0.1-0.4,1.3-1.2,2.2-1.2L193.5,229.5z"/>
				<path fill="#E64E9D" d="M192.9,227c0,0-0.4,0.1-0.6,0.5l1.2,2.1c0,0,0.5,0.3,0.7-0.2L192.9,227z"/>
				
					<ellipse transform="matrix(-0.3969 0.9179 -0.9179 -0.3969 497.6631 128.2445)" fill="#F1F2F2" cx="206.7" cy="227.6" rx="5.6" ry="5.4"/>
				<g>
					<path fill="#BD814E" d="M211.2,217.1c-2.4-1-5.3,0.1-6.4,2.5c-0.1,0.1-0.1,0.3-0.1,0.4c-0.4,0.3-0.7,0.7-0.9,1.2
						c-0.8,1.9,0.6,4.4,3.3,5.5l0,0L211.2,217.1L211.2,217.1z"/>
					<path fill="#BD814E" d="M213.3,225.2c0.2-0.5,0.3-1,0.2-1.4c0.1-0.1,0.1-0.3,0.2-0.4c1-2.4-0.1-5.3-2.5-6.3l-4.1,9.5
						C209.7,227.7,212.6,227.2,213.3,225.2z"/>
				</g>
				
					<ellipse transform="matrix(0.3968 -0.9179 0.9179 0.3968 -76.2319 330.9902)" fill="#BD814E" cx="213.7" cy="223.5" rx="0.9" ry="1"/>
				
					<ellipse transform="matrix(-0.3969 0.9179 -0.9179 -0.3969 487.8146 118.8427)" fill="#BD814E" cx="204.9" cy="219.7" rx="0.9" ry="1"/>
				<path fill="#009ED4" d="M210.4,223.9c-0.4-0.5-1-0.3-1.9-0.6c-0.8-0.4-1.2-1-1.7-0.9c-0.4,0.1-0.6,0.3-0.7,0.6
					c-0.4,0.9,0.1,2.4,1.4,3c1.2,0.5,2.7-0.1,3.1-1C210.6,224.6,210.6,224.2,210.4,223.9z"/>
				<g>
					<circle fill="#FFDE17" cx="208.1" cy="224.5" r="0.6"/>
					<g>
						<path fill="#FFDE17" d="M208.2,224.2c-0.9-0.4-1.9,0.1-2.3,0.9c-0.4,0.9,0.1,1.9,0.9,2.3c0.9,0.4,1.9-0.1,2.3-0.9
							C209.4,225.6,209,224.6,208.2,224.2z M207,227c-0.6-0.3-1-1-0.7-1.7c0.3-0.6,1-1,1.7-0.7c0.6,0.3,1,1,0.7,1.7
							C208.4,226.9,207.6,227.2,207,227z"/>
					</g>
				</g>
				<g>
					<path fill="#6C3F26" d="M208.9,219.6c0,0,0-0.1,0-0.1c0-0.1,0-0.2,0-0.4s0.1-0.3,0.1-0.5c0.1-0.2,0.2-0.4,0.4-0.6
						c0.2-0.2,0.5-0.4,0.7-0.5s0.6-0.2,1-0.1l0.1,0.1c0.1,0,0.1,0.1,0.1,0.1c0.1,0.1,0.2,0.1,0.3,0.1c0.2,0.1,0.4,0.2,0.5,0.3
						c0.3,0.3,0.5,0.6,0.6,1c0,0.1,0,0.1,0.1,0.1c0,0.1,0,0.1,0,0.1v0.1l0,0v0.1l0,0l0,0v0.1v0.1c-0.1,0.3-0.1,0.5-0.2,0.6
						c-0.2,0.4-0.6,0.6-1,0.7c-0.1,0-0.1,0.1-0.1,0.1s-0.1,0-0.1,0s-0.1,0-0.1,0h-0.1h-0.1l0,0h-0.1l0,0H211c-0.1,0-0.1,0-0.1,0
						c-0.1,0-0.1-0.1-0.1-0.1c-0.1-0.1-0.1-0.1-0.3-0.1c-0.3-0.2-0.5-0.5-0.6-0.8c-0.1-0.1-0.1-0.3-0.1-0.5v-0.1l0,0l0,0v-0.1
						c0-0.1,0-0.1,0.1-0.1c0.1-0.1,0.1-0.1,0.1-0.2c0.1-0.2,0.3-0.3,0.5-0.4c0.1-0.1,0.1-0.1,0.2-0.1c0.1,0,0.1,0,0.1,0
						c0.1,0,0.1,0,0.1,0s-0.1,0-0.1,0.1c-0.1,0-0.1,0.1-0.1,0.1c-0.1,0-0.1,0.1-0.1,0.1c-0.1,0.1-0.2,0.2-0.2,0.4c0,0.1,0,0.1,0,0.1
						s0,0.1,0,0.1v0.1v0.1l0,0c0,0,0-0.1,0,0l0,0l0,0c0,0.1,0.1,0.1,0.1,0.3c0.1,0.1,0.3,0.3,0.4,0.4c0.1,0,0.1,0.1,0.1,0.1
						c0.1,0,0.1,0,0.1,0h0.1h0.1l0,0c0,0-0.1,0,0,0l0,0l0,0l0,0h0.1c0.1,0,0.1,0,0.1,0c0.1,0,0.1,0,0.1,0s0.1,0,0.1-0.1
						c0.2-0.1,0.4-0.3,0.5-0.4c0.1-0.1,0.1-0.2,0.1-0.3v-0.1v-0.1c0-0.1,0-0.1,0-0.1c0-0.1,0-0.1,0-0.1c0-0.1-0.1-0.3-0.1-0.3
						c-0.1-0.1-0.1-0.2-0.2-0.3c-0.1-0.1-0.1-0.1-0.3-0.2c-0.1-0.1-0.1-0.1-0.1-0.1l-0.1-0.1c-0.1,0-0.1,0-0.1-0.1
						c-0.3-0.1-0.5-0.1-0.7,0c-0.3,0.1-0.5,0.1-0.6,0.3c-0.1,0.1-0.3,0.3-0.5,0.4s-0.2,0.3-0.3,0.4C209,219.5,209,219.6,208.9,219.6
						C208.9,219.6,208.9,219.6,208.9,219.6z"/>
					<path fill="#6C3F26" d="M208.9,219.7L208.9,219.7c-0.1-0.1-0.1-0.1-0.2-0.1c-0.1-0.1-0.1-0.1-0.2-0.2c-0.1-0.1-0.1-0.1-0.1-0.1
						c-0.1-0.1-0.1-0.1-0.1-0.2c-0.1-0.1-0.1-0.1-0.1-0.2c-0.1-0.1-0.1-0.1-0.1-0.3c-0.1-0.1-0.1-0.4-0.1-0.6c0-0.1,0.1-0.2,0.1-0.3
						c0-0.1,0.1-0.1,0.1-0.1l0.1-0.1c0-0.1,0.1-0.1,0.1-0.1c0.1-0.1,0.1-0.1,0.1-0.1c0.1-0.1,0.1-0.1,0.2-0.3
						c0.1-0.1,0.1-0.1,0.3-0.3l0.1-0.1l0,0l0,0h0.1l0,0l0.1-0.1c0.1-0.1,0.1-0.1,0.1-0.1c0.1-0.1,0.1-0.1,0.1-0.1
						c0.1-0.1,0.1-0.1,0.1-0.1c0.1-0.1,0.2-0.1,0.3-0.1c0.2-0.1,0.4-0.1,0.6,0c0.1,0,0.1,0.1,0.3,0.1c0.1,0.1,0.1,0.1,0.2,0.1
						c0.1,0.1,0.3,0.1,0.3,0.3c0.1,0.1,0.1,0.1,0.2,0.3c0.1,0.1,0.1,0.1,0.1,0.1l0.1,0.1c0,0-0.1,0-0.1-0.1c-0.1,0-0.1-0.1-0.1-0.1
						c-0.1-0.1-0.1-0.1-0.3-0.1c-0.1,0-0.1-0.1-0.1-0.1s-0.1,0-0.1,0c-0.2,0-0.5,0.1-0.7,0.1c-0.1,0.1-0.1,0.1-0.1,0.1l-0.1,0.1
						c-0.1,0-0.1,0.1-0.1,0.1l-0.1,0.1l-0.1,0.1l0,0c0.1-0.1,0,0,0,0l0,0l0,0l0,0l0,0c-0.1,0.1-0.1,0.1-0.1,0.1
						c-0.1,0.1-0.1,0.2-0.3,0.3c-0.1,0.1-0.1,0.3-0.1,0.4c-0.1,0.1-0.1,0.3-0.1,0.4c0,0.1,0,0.1,0,0.1c0,0.1,0,0.1,0,0.1
						c0,0.1,0,0.1,0,0.1v0.1c0,0.1,0,0.1,0,0.1c0,0.1,0,0.1,0,0.1v0.1c0,0.1,0.1,0.2,0.1,0.3c0,0.1,0.1,0.1,0.1,0.1
						C208.9,219.6,208.9,219.7,208.9,219.7z"/>
				</g>
			</g>
			<path fill="#BD814E" d="M213,237.3c-1,0.5-1.5-0.4-2.4,0.3c-4.7,3.3-10.4,6.7-10.4,6.7s-2.8-0.5-3.3,0.1
				c-0.3,0.5,0.8,0.4,0.9,0.7c0.1,0.6-2.3,0.8-2.5,1.4c-0.6,1.4,0.9,2.6,1.2,2.6c1.5,0.1,0.6-0.1,3-1c1.4-0.6,2.8-2.3,2.8-2.3
				s7.6-3.5,10.2-4.6C213.9,240.5,213,237.3,213,237.3z"/>
			<path fill="#BD814E" d="M179.6,237.3c0.6-0.8,1.7-0.1,2.8-0.4c5.7-0.8,15.1-2.4,15.1-2.4s2-2.4,2.8-2.2c0.5,0.1-0.8,1.7-0.6,2
				c0.3,0.5,3.2-0.5,3.5-0.1c0.3,0.5,0.1,1,0.1,1.2c-0.1,0.6-0.2,0.8-0.8,1c-1.4,0.6-5.5,0.7-5.5,0.7s-14.1,6-16.2,5.6
				C179.5,242.5,179.6,237.3,179.6,237.3z"/>
		</g>
	</g>
	<g>
		<g>
			<g>
				<path fill="#E64E9D" d="M329.9,313.1h3.6c0,0-0.1-5.9-0.1-13.3h-4.1C330.1,308.1,329.9,313.1,329.9,313.1z"/>
				<path fill="#FDDBAE" d="M333.4,275.8l-6.3,5.6c1.2,7.1,1.9,13.4,2.3,18.3h4.1C333.4,291.7,333.4,281.9,333.4,275.8z"/>
				<path fill="#FDDBAE" d="M342.1,280.8l-6.4-5c0.1,6.1,0,16-0.1,23.9h4.1C340.1,294.6,340.8,288.2,342.1,280.8z"/>
				<path fill="#E64E9D" d="M339.7,299.7h-4.1c-0.1,7.4-0.1,13.3-0.1,13.3h3.6C339.1,313.1,339,308,339.7,299.7z"/>
			</g>
			<path fill="#FDD09E" d="M344.4,272.7c2.2-1.4,5.3-4.6,8.4-7.2c0.3-0.3,2.5-0.2,1.7,1.4c0,0-6.6,7.5-9,10.2L344.4,272.7z"/>
			<rect x="335.3" y="312.6" fill="#FFDE17" width="4.1" height="2.7"/>
			<rect x="329.8" y="312.6" fill="#FFDE17" width="4.1" height="2.7"/>
			<rect x="335.3" y="311.2" fill="#FFDE17" width="4.1" height="0.6"/>
			<rect x="329.8" y="311.2" fill="#FFDE17" width="4.1" height="0.6"/>
			<path fill="#FDD09E" d="M344.7,274.3c0.1,0.5,2.1,0.6,2.1,0.1c-0.1-5.7-0.3-8.6-0.3-8.6l-3.7,0.1C343,265.8,344,272,344.7,274.3z
				"/>
			<path fill="#FFE5BA" d="M334.6,252.9h-2.8v4.4c0,1.9,2.8,2.5,2.8,2.5v-2.5l0,0V252.9z"/>
			<path fill="#FDD09E" d="M334.6,257v2.8c0,0,2.8-0.6,2.8-2.5L334.6,257z"/>
			<rect x="334.6" y="252.9" fill="#FDD09E" width="2.8" height="4.4"/>
			<path fill="#FDD09E" d="M334.6,256.3c0,0,1.7,0.1,2.7-0.8c0.6-0.6,2.6-1.1,2.6-3.2c0-2.1,0.3-4.2,0.3-5.5
				c0.1-1.3,0.4-4.7-3.2-4.7c-2.2,0-2.4,0-2.4,0V256.3L334.6,256.3z"/>
			<path fill="#FDD09E" d="M339.7,247.9c0,0,0.7-0.8,1.1-0.8c0.5,0,0.7,0.7,0.8,1.1c0.1,0.4-0.6,2.1-0.7,2.3
				c-0.1,0.2-0.6,0.6-0.9,0.3C339.5,250.3,339.7,247.9,339.7,247.9z"/>
			<path fill="#FFE5BA" d="M329.4,247.9c0,0-0.7-0.8-1.1-0.8c-0.5,0-0.7,0.7-0.8,1.1c-0.1,0.4,0.6,2.1,0.7,2.3
				c0.1,0.2,0.6,0.6,0.9,0.3C329.7,250.3,329.4,247.9,329.4,247.9z"/>
			<path fill="#FFE5BA" d="M334.6,256.3c0,0-1.7,0.1-2.7-0.8c-0.6-0.6-2.6-1.1-2.6-3.2c0-2.1-0.3-4.2-0.3-5.5
				c-0.1-1.3-0.4-4.7,3.2-4.7c2.2,0,2.4,0,2.4,0V256.3L334.6,256.3z"/>
			<path fill="#FFDE17" d="M348,245.2c-0.6-3.2-1.9-5.1-4.2-5.1c-2.1,0.1-4.2,2.8-4.2,2.8l1.8,1c0,0,0.7,0.4,1.7,0.8
				c-0.1,2.6,2.4,4.1,2.4,4.1c-0.3-1,0.5-1.9,0.5-1.9c-0.1,3.3,3,3.3,3,3.3C346.9,247.7,348.4,247.4,348,245.2z"/>
			<path fill="#FFDE17" d="M338.6,242.7c0,0-0.8,2.6-4.8,2.8c0,0,1.1-1.2,1.2-1.9c0,0-1.2,1.6-3.5,1.8c0,0,0.5-1,0.6-1.8l-2.7,3.6
				c0,0-2.1-6.9,4.4-7.3c3.5-0.2,4.6,0.7,5,1.4C339.2,242,338.6,242.7,338.6,242.7z"/>
			<path fill="#39B54A" d="M341.1,241.1c-0.4-0.1-1,0.1-1,0.1s-0.5,0.1-0.8,0.5c0,0,1.1,1.2,1.2,3.7c0,0,0.1,0.3,1-0.1
				c0.8-0.3,0.8-0.5,0.8-0.5C342.8,242,341.1,241.1,341.1,241.1z"/>
			<path fill="#FFDE17" d="M321.8,245.2c0.6-3.2,1.9-5.1,4.2-5.1c2.1,0.1,4.2,2.8,4.2,2.8l-1.7,1c0,0-0.7,0.4-1.7,0.8
				c0.1,2.6-2.4,4.1-2.4,4.1c0.3-1-0.5-1.9-0.5-1.9c0.1,3.3-3,3.3-3,3.3C322.9,247.7,321.3,247.4,321.8,245.2z"/>
			<path fill="#39B54A" d="M329.6,241.2c0,0-0.5-0.1-1-0.1c0,0-1.7,0.9-1.2,3.7c0,0-0.1,0.3,0.8,0.5c0.8,0.3,1,0.1,1,0.1
				c0.1-2.4,1.2-3.7,1.2-3.7C330.1,241.4,329.6,241.2,329.6,241.2z"/>
			<path fill="#FFDE17" d="M337.7,243.3c0,0,2.1,5.2,2.1,7.1c0,0,1.7-6.9,0.3-8.6C339.7,241.3,337.7,240.7,337.7,243.3z"/>
			<path fill="#FFDE17" d="M332.1,243.3c0,0-3,4.7-3,6.6c0,0-0.8-6.4,0.6-8.1C330.1,241.3,332.1,240.7,332.1,243.3z"/>
			<path fill="#6DCEF5" d="M346.4,262.3c-0.1-1.5-0.7-3.6-4.4-4.1l0,0l-3.7-0.5h-6.5l-4.6,0.6c-4.1,0.4-4.2,2.4-4.4,4
				c-0.1,1.4-0.3,3.8-0.3,3.8h3.7l0.6-2.8V263h0.6v10.9l-2.8,18h9.9v-13.8l0,0l0,0v13.8h9.9l-2.8-18V263h0.7l0.1,0.2l0.7,3
				c0.6,0.1,1.5,2.1,3.6-0.6C346.7,265.8,346.5,263.7,346.4,262.3z"/>
			<path fill="#FDD09E" d="M353,265.4c0,0-0.1-3.1,0.2-3.6c0.3-0.5,0.8-0.4,0.9,0.9l0.6-1c0,0,1-1.5,1.5-1.7
				c0.5-0.1,1.8,1.1,1.9,1.5c0.1,0.5,0.4,1.2-0.2,2.2c-1.7,3-3.4,3.3-3.4,3.3L353,265.4z"/>
			<path fill="#FDD09E" d="M324.8,272.7c-2.2-1.4-5.3-4.6-8.4-7.2c-0.3-0.3-2.5-0.2-1.7,1.4c0,0,6.6,7.5,9,10.2L324.8,272.7z"/>
			<path fill="#FDD09E" d="M324.4,274.3c-0.1,0.5-2.1,0.6-2.1,0.1c0.1-5.7,0.3-8.6,0.3-8.6l3.7,0.1
				C326.1,265.8,325.1,272,324.4,274.3z"/>
			<path fill="#FDD09E" d="M316.2,265.4c0,0,0.1-3.1-0.2-3.6c-0.3-0.5-0.8-0.4-0.9,0.9v0.5c0,0-1.6-3-2.1-3.2s-1.8,1.1-1.9,1.5
				c-0.1,0.5-0.4,1.2,0.2,2.2c1.7,3,3.4,3.3,3.4,3.3L316.2,265.4z"/>
			<path fill="#E64E9D" d="M337.4,257.3c0,0,2.4,0.2,2,2.5c-0.5,2.4-4.5,2.5-4.8,0C334.6,259.9,336.9,258.9,337.4,257.3z"/>
			<path fill="#E64E9D" d="M331.7,257.3c0,0-2.4,0.2-2,2.5c0.5,2.4,4.5,2.5,4.8,0C334.6,259.9,332.3,258.9,331.7,257.3z"/>
			<g>
				<g>
					<path fill="#E64E9D" d="M326.5,271c0,0-1.5,2.8-0.1,5.4l3.9-2.1v-0.8C330.3,273.6,329.2,272.4,326.5,271z"/>
					<path fill="#E64E9D" d="M334.1,271c0,0,1.5,2.8,0.1,5.4l-3.9-2.1v-0.8C330.3,273.6,332.1,272.2,334.1,271z"/>
					<path fill="#E64E9D" d="M329.8,274c0,0-2.2,2.7-2.5,5.7l1.7,0.5c0,0,1.2-3.2,1.5-5.9L329.8,274z"/>
					<path fill="#E64E9D" d="M330.6,274c0,0,2.2,2.7,2.5,5.7l-1.7,0.5c0,0-1.2-3.2-1.5-5.9L330.6,274z"/>
				</g>
			</g>
			<rect x="327.5" y="273.6" fill="#E64E9D" width="14.6" height="1.4"/>
			<path fill="#5BABB6" d="M315.1,272.5c-2.4-7.5-2.6-12-2.8-18.2c-0.3-5.2-0.5-11.7-2.3-22.1l0.7-0.1c1.8,10.5,2.1,17,2.3,22.3
				c0.3,6.2,0.5,10.6,2.8,18.1L315.1,272.5z"/>
			<path fill="#F267A5" d="M320.8,214.6c1,7.2-3.7,16.6-10.8,17.6c-7.2,1-14.2-6.9-15.2-14.2c-1-7.2,4.1-13.8,11.3-14.7
				C313.3,202.4,319.8,207.5,320.8,214.6z"/>
			<path fill="#F585B7" d="M310.3,215.1c0.5,3.9-2,9.1-5.9,9.6c-3.9,0.5-7.8-3.8-8.2-7.7c-0.5-3.9,2.3-7.5,6.2-8
				C306.2,208.5,309.8,211.3,310.3,215.1z"/>
			<polygon fill="#F267A5" points="306.8,236 309.9,228.6 314.8,234.9 			"/>
		</g>
		<g>
			<g>
				<path fill="#515151" d="M387.6,313.7c-0.8,0-2.8-0.3-3.2-0.8c0,0,0.1-0.6,0.3-1.4c0.7-0.5,1.8-0.7,3-0.7c1.2,0,2.3,0.3,3,0.7
					c0.1,0.8,0.2,1.4,0.2,1.4C390.3,313.5,388.4,313.7,387.6,313.7z"/>
				<path fill="#262626" d="M390,307.3L390,307.3c0-0.3,0-0.6-0.1-0.9c-0.5-0.6-0.4-2.1-0.4-2.1v0.1c0-0.1,0-0.1,0-0.1h-3.8
					c0,0.1,0,0.1,0,0.1v-0.1c0,0,0.1,1.4-0.3,2.1c-0.3,0.5-0.2,1.2-0.1,1.5c-0.1,0.9-0.5,2.4-0.6,3.5c0.7-0.5,1.8-0.7,3-0.7
					c1.2,0,2.3,0.3,3,0.7C390.4,310,390.2,307.8,390,307.3z"/>
				<path fill="#262626" d="M387.6,313.5c0,0,2.3,0.1,3.2-0.6v2.1c-0.6,0.3-3.2,0.4-3.2,0.4s-2.6,0-3.2-0.4v-2.1
					C385.3,313.5,387.6,313.5,387.6,313.5z"/>
			</g>
			<g>
				<path fill="#515151" d="M374.5,313.7c0.8,0,2.8-0.3,3.2-0.8c0,0-0.1-0.6-0.3-1.4c-0.7-0.5-1.8-0.7-3-0.7c-1.2,0-2.3,0.3-3,0.7
					c-0.1,0.8-0.1,1.4-0.1,1.4C371.8,313.5,373.7,313.7,374.5,313.7z"/>
				<path fill="#262626" d="M372.1,307.3L372.1,307.3c0-0.3,0-0.6,0.1-0.9c0.5-0.6,0.4-2.1,0.4-2.1v0.1c0-0.1,0-0.1,0-0.1h3.8
					c0,0.1,0,0.1,0,0.1v-0.1c0,0-0.1,1.4,0.3,2.1c0.3,0.5,0.2,1.2,0.1,1.5c0.1,0.9,0.5,2.4,0.6,3.5c-0.7-0.5-1.8-0.7-3-0.7
					c-1.2,0-2.3,0.3-3,0.7C371.7,310,372,307.8,372.1,307.3z"/>
				<path fill="#262626" d="M374.5,313.5c0,0-2.3,0.1-3.2-0.6v2.1c0.6,0.3,3.2,0.4,3.2,0.4s2.6,0,3.2-0.4v-2.1
					C376.8,313.5,374.5,313.5,374.5,313.5z"/>
			</g>
			<g>
				<path fill="#515151" d="M368.9,249.2c-0.9,5.4-0.9,10.8,0.8,29.1c0.3,2.4-1.5,19.2,0.6,28.8h8c0,0,1.7-11.3,0.3-29
					c-0.1-1.3,0.5-5.5,0.7-6.8c0.6-6.3,0.6-11,0.8-12.5c0.1-0.3,0.8-0.1,0.9-0.1l0.1-1.2l-0.1-8.4H368.9L368.9,249.2z"/>
			</g>
			<g>
				<path fill="#262626" d="M393.5,249.2c0.9,5.4,0.7,10.8-1,29.1c-0.3,2.4,2.3,16.6-0.1,28.8h-8.7c0,0-1.7-11.3-0.3-29
					c0.1-1.3-0.5-5.5-0.7-6.8c-0.6-6.3-0.6-10.9-0.8-12.4c-0.1-0.3-0.8-0.3-0.9-0.3v-9.6C381.2,249.2,393.5,249.2,393.5,249.2z"/>
			</g>
			<polygon fill="#FFE5BA" points="366.2,189.7 376,192.9 376.3,187.4 367.6,186.5 			"/>
			<rect x="378.1" y="182.1" fill="#FFE5BA" width="5.8" height="6.3"/>
			<path fill="#FFE5BA" d="M367.6,186.5c-2.3-2.5-5.4-2.4-9.1-5.2c-0.3-0.3,0.1-0.6-0.6-1.4c-0.5-0.6-1.9-2.2-2.2-2.1
				c-0.4,0.1-1.2,1.2-1.4,2c-0.2,1.5,0.9,2.3,1,2.4c1.2,1.4,1.9,0.1,3.3,1.2c0,0,3.3,3.8,7.7,6.3C366.2,189.7,368,186.9,367.6,186.5
				z"/>
			<polygon fill="#FFE5BA" points="395.9,189.7 386.1,192.9 385.8,187.4 394.5,186.5 			"/>
			<path fill="#FFE5BA" d="M394.5,186.5c2.3-2.5,5.4-2.4,9.1-5.2c0.3-0.3-0.1-0.6,0.6-1.4c0.5-0.6,1.9-2.2,2.2-2.1
				c0.4,0.1,1.2,1.2,1.4,2c0.2,1.5-0.9,2.3-1,2.4c-1.2,1.4-1.9,0.1-3.3,1.2c0,0-3.3,3.8-7.7,6.3
				C395.9,189.7,394.1,186.9,394.5,186.5z"/>
			<path fill="#FFE5BA" d="M401.1,238.9c0.5,0.1,2.3,1.2,3.5,1.7c0.3,0.8,0.5,1.3,0.5,1.3s0.1-0.4,0.2-1c0.3,0.1,0.4,0.1,0.4-0.1
				c-0.1-0.4-0.1-0.7-0.2-1.2c0.2-2.1,0.3-5.2-0.5-8c-0.6-2-1.3-4.2-2.6-5.5c0-0.1-0.1-0.1-0.1-0.1l-5.7,5
				C397.3,233.9,398.7,238,401.1,238.9z"/>
			<path fill="#FFE5BA" d="M401.2,239.1c-0.1,4.7,3.2,10.7,5.3,16.6c0.2,0.5-1.2,0.8-0.9,2.3c0.5,2.1,0.1,4.5,0.6,4.7
				c0.6,0.3,0.8-0.1,1-1.6c0.1-0.3,0.6-0.5,0.7-0.2c0.2,0.8,0.5,1.8,0.5,2.1c0.1,0.3-1.7,3.3-0.8,3.7c0.5,0.3,1.7-2.1,1.8-2.3
				c0.6-1.4,0.8-2.3,0.8-2.6c0.1-0.4-0.6-4.6-0.6-4.6s-0.2-16-3.6-19.3C404.8,236.9,401.2,238.3,401.2,239.1z"/>
			<path fill="#FFE5BA" d="M361.9,238.5c0.1,4.7-3.2,10.7-5.3,16.6c-0.2,0.5,1.2,0.8,0.9,2.3c-0.5,2.1,0.2,5.1-0.2,5.3
				c-0.6,0.3-1,0.8-1.4-2.2c-0.1-0.3-0.4,0.1-0.5,0.4c-0.2,0.8-0.3,1.5-0.3,1.8c-0.1,0.3,1.3,3,0.5,3.4c-0.5,0.3-1.7-2.1-1.8-2.3
				c-0.6-1.4-0.8-2.3-0.8-2.6c-0.1-0.4,0.6-4.6,0.6-4.6s0.2-16,3.6-19.3C358.2,236.4,361.9,237.7,361.9,238.5z"/>
			<path fill="#FFE5BA" d="M362.1,238.2c-0.5,0.1-2.3,1.2-3.5,1.7c-0.3,0.8-0.5,1.3-0.5,1.3s-0.1-0.4-0.2-1
				c-0.3,0.1-0.4,0.1-0.4-0.1c0.1-0.4,0.1-0.7,0.2-1.2c-0.2-2.1-0.3-5.2,0.5-8c0.6-2,1.3-4.2,2.6-5.5c0-0.1,0.1-0.1,0.1-0.1l5.7,5
				C365.8,233.3,364.5,237.4,362.1,238.2z"/>
			<path fill="#FFDE17" d="M395.8,216.5c-1-0.7-1.8-0.6-2.4-0.2c0.2-1.2,0.5-2.2,0.8-3L381,212l-13.3,1.4c0.3,0.6,0.5,1.3,0.6,2.1
				c-0.3,0.1-0.7,0.2-1.1,0.5c-3.2,2.2-5.7,7.5-6.5,9.5l5.7,5c0.2-0.7,0.3-1.3,0.4-1.7l0.7,7.1l0.1,17.4h13.2h0.3h13.3l-1-24.2
				c0.8,0.3,2,0.1,2.9-0.1c0.1,0.5,0.3,1.2,0.4,2l5.7-5C401.5,223.9,399.1,218.7,395.8,216.5z"/>
			<path fill="#FDDBAE" d="M388.2,179.1c-0.2,1.4-0.8,2.4-1.6,2.4c-1.2,0-1-1.3-1-2.6c0-1.7,0.5-2,1.5-2
				C387.9,176.9,388.4,177.9,388.2,179.1z"/>
			<path fill="#FFE5BA" d="M375.4,177.6c0,0-0.4,5.3,0.3,6.5c0.6,0.9,3,2.3,5.3,2.3v-16.7C381,169.8,374.5,168.9,375.4,177.6z"/>
			<path fill="#FFE5BA" d="M386.7,177.6c0,0,0.4,5.3-0.3,6.5c-0.6,0.9-3,2.3-5.3,2.3v-16.7C381,169.8,387.7,168.9,386.7,177.6z"/>
			<path fill="#FFE5BA" d="M374,179.1c0.2,1.4,0.8,2.4,1.6,2.4c1.2,0,1-1.3,1-2.6c0-1.7-0.5-2-1.5-2
				C374.2,176.9,373.8,177.9,374,179.1z"/>
			<g>
				<path fill="#FFDE17" d="M375.7,171.4c0,0-0.3-3,4.4-3.1c4.4-0.1,5-1.4,5-1.4s1.2,1.2,1.2,3.5c0,2.8-2.6,4.2-5.3,4.2
					C377.3,174.7,376.1,172.2,375.7,171.4z"/>
				<path fill="#FFDE17" d="M375.7,171.4l-1.3,0.6l0.1,4.2l0.8,1.4c0,0,0.5-1,0.6-1.5c0.1-0.7,0.8-2.4,0.7-3.3L375.7,171.4z"/>
				<path fill="#FFDE17" d="M386.2,171.2l1.2,0.9l0.1,4.6l-0.7,1.1c0,0,0.1-2-0.1-2.5c-0.1-0.7-1.4-1.4-1.2-2.4L386.2,171.2z"/>
				<path fill="#FFDE17" d="M375.7,170.9c0,0,0.3-2.3,3-3.1c1.4-0.4,0.9-0.8,0.9-0.8s0.9,0.2,0,1.4
					C378.8,169.6,375.8,170.5,375.7,170.9z"/>
				<path fill="#FFDE17" d="M374.3,172.1c0,0,0.1,2.4-0.5,2.4c0,0,0.5,0.6,0.9,0.2C375.2,174.3,374.3,172.1,374.3,172.1z"/>
				<path fill="#FFDE17" d="M379.7,168.3c0,0,2.1-0.4,2.2-1.2c0,0,1.4,0.6-0.1,1.7C380.4,169.8,379.7,168.3,379.7,168.3z"/>
				<path fill="#FFDE17" d="M387.3,172.7c0,0,0.2,1.2,1,1.2c0,0-0.8,0.9-1.5-0.3C386.3,173,387.3,172.7,387.3,172.7z"/>
				<path fill="#FFDE17" d="M386,171.6c0,0,1.1-1.9,0.4-3.9c0,0-0.4,1.5-1.1,1.9C384.6,170.1,386,171.6,386,171.6z"/>
			</g>
			<path fill="#6DCEF5" d="M367.8,209.3c-0.8,0.3-0.9,2-0.9,11.1h6.6v-6.6c0,0,2.6-0.8,3.9-0.9c0,0,1.7-4.9,0.8-6.3
				C377.4,205.3,370.3,208.6,367.8,209.3z"/>
			<path fill="#FFDE17" d="M382.8,172.1c0,0-0.5,4.9-4.3,3.7c-3.8-1.2-3.3-2.4-3.3-2.4l5.2-2.6L382.8,172.1z"/>
			<rect x="368.4" y="220.4" fill="#FFE5BA" width="3.7" height="6"/>
			<rect x="368" y="225" fill="#FFDE17" width="4.4" height="3"/>
			<path fill="#6DCEF5" d="M394.2,209.3c0.8,0.3,0.9,2,0.9,11.1h-6.6v-6.6c0,0-2.6-0.8-3.9-0.9c0,0-1.7-4.9-0.8-6.3
				C384.7,205.3,391.8,208.6,394.2,209.3z"/>
			<rect x="390" y="220.4" fill="#FFE5BA" width="3.7" height="6"/>
			<rect x="389.7" y="225" fill="#FFDE17" width="4.4" height="3"/>
			<path fill="#E24512" d="M391.3,192.2l-1-6l-9.4,1.5l-9.3-1.4l-1,5.9l2,1.7l-0.6,13.5c0,0,11.4,1.7,18.5-0.3l-1.2-13.8
				L391.3,192.2z"/>
			<g>
				<path fill="#FDC486" d="M381,205.7v8.8v3.6l0,0c2,0,4.2-1.7,4.2-3.6l-0.7-8.8H381z"/>
				<path fill="#FDC486" d="M381,205.7v8.8v3.6l0,0c-2,0-4.2-1.7-4.2-3.6l0.7-8.8H381z"/>
				<path fill="#FDDBAE" d="M387.3,200.6c0,0-0.1,6.2-0.9,7.5c-0.6,1-2.8,2.4-5.4,2.4v-18.7C381,191.8,388.4,190.9,387.3,200.6z"/>
				<path fill="#FDDBAE" d="M389,202.3c-0.2,1.5-0.9,2.6-1.8,2.6c-1.4,0-1.2-1.4-1.2-2.9c0-1.9,0.5-2.2,1.7-2.2
					C388.7,199.9,389.2,200.9,389,202.3z"/>
				<path fill="#FFE5BA" d="M374.8,200.6c0,0,0.1,6.2,0.9,7.5c0.6,1,2.8,2.4,5.4,2.4v-18.7C381,191.8,373.7,190.9,374.8,200.6z"/>
				<path fill="#FFE5BA" d="M373.1,202.3c0.2,1.5,0.9,2.6,1.8,2.6c1.4,0,1.1-1.4,1.1-2.9c0-1.9-0.5-2.2-1.7-2.2
					C373.4,199.9,372.9,200.9,373.1,202.3z"/>
				<g>
					<g>
						<path fill="#262626" d="M388.2,196.8c0,3.3-1.2,5.1-1.2,5.1s-0.5-2.5-0.6-3.3c-0.3-1.4-0.9-4.6-0.5-5.9l2.3,2.5
							C388.2,195.1,388.2,195.8,388.2,196.8z"/>
					</g>
					<path fill="#262626" d="M388.2,195.4c0-2.5-2.3-4.6-5.2-4.6h-2.3l0.3,6.3c1.4,0.2,3.3,0.4,5.5,0.4c1.7,0,1.7-1.8,1.7-1.8
						C388.1,195.6,388.2,195.6,388.2,195.4z"/>
					<path fill="#262626" d="M381,190.8h-1.8c-2.8,0-5.2,4.9-5.2,6c0,3.3,1.1,5.1,1.1,5.1s0.5-2.5,0.6-3.3c0.1-0.7,0.3-1.8,0.5-2.8
						c0.5,0.3,1.9,1,4.8,1.4V190.8z"/>
				</g>
				<path fill="#262626" d="M377,192.2c0,0-3-0.6-3.3,2c-0.3,2.6,0.5,5.9,1.4,7.8C375.1,201.9,375.5,192.7,377,192.2z"/>
				<path fill="#262626" d="M376.3,192c1.1-2.7,9.5-1,12-2.7c0,0,2.2,4-1.1,5.9C387.2,195.1,375.7,193.7,376.3,192z"/>
			</g>
			<g>
				<path fill="#FFE5BA" d="M380.7,189.2c1.8,0,4.1-0.9,4.1-2.2l-8.1,0.1C376.8,188.3,379,189.2,380.7,189.2z"/>
			</g>
			<path fill="#39B54A" d="M368,226.2c0,0-2.7,1.5-2.8,2.6c-0.1,1.2-0.3,1.8-0.3,1.8s3.1,0.3,3.3,0c0.3-0.3,4.1-2.7,4.1-2.7v-1.7
				C372.4,226.2,370,226.7,368,226.2z"/>
			<path fill="#39B54A" d="M394,226.2c0,0,2.7,1.5,2.8,2.6c0.1,1.2,0.3,1.8,0.3,1.8s-3.1,0.3-3.3,0s-4.1-2.7-4.1-2.7v-1.7
				C389.7,226.2,392.1,226.7,394,226.2z"/>
		</g>
		<g>
			<path fill="#39B54A" d="M414.5,213.8c0,0-7.3,4.4-7.9,28.9c-0.3,8.9-0.2,11.5-0.2,11.5l5.3,0.1c0,0,0.4-10.4,0.9-15.2
				c0.4-4.2,4.4-13.1,4.4-13.1L414.5,213.8z"/>
			<g>
				<path fill="#E24512" d="M415.8,240.9h24.7c0-1.1,0-2.2,0-3.3h-24.7C415.8,238.7,415.8,239.8,415.8,240.9z"/>
				<path fill="#E24512" d="M419.3,213.1l-4.8,0.6c0,0,0.1,1,0.3,2.4h7.7L419.3,213.1z"/>
				<path fill="#E24512" d="M415.7,226.7c0,0.6,0.1,1.2,0.1,1.9h24.9c0-0.7,0.1-1.4,0.1-1.9c0-0.3,0.1-0.8,0.1-1.4h-25.2
					C415.6,225.9,415.7,226.3,415.7,226.7z"/>
				<path fill="#E24512" d="M430.3,219.1l-2.5,2.3l-2.3-2.3h-10.4c0.1,1.1,0.2,2.2,0.3,3.3h25.5c0.1-1.1,0.2-2.2,0.3-3.3
					L430.3,219.1L430.3,219.1z"/>
				<path fill="#E24512" d="M415.8,253.7h12.2h0.3h12.2c0,0,0-1.5,0-3.8h-24.6C415.8,252.2,415.8,253.7,415.8,253.7z"/>
				<path fill="#E24512" d="M415.8,247h24.6c0-1,0-2.1,0-3.3h-24.6C415.8,244.9,415.8,246,415.8,247z"/>
				<path fill="#E24512" d="M415.7,234.7h24.8c0-1.2,0-2.3,0.1-3.3h-24.8C415.7,232.4,415.7,233.6,415.7,234.7z"/>
				<path fill="#E24512" d="M441.8,213.8l-4.8-0.6l-3.5,3.1h8C441.7,214.8,441.8,213.8,441.8,213.8z"/>
				<path fill="#39B54A" d="M441.2,219.1c0.1-1,0.2-2.1,0.3-2.8h-8l-3.2,2.8H441.2z"/>
				<path fill="#39B54A" d="M422.5,216.2h-7.7c0.1,0.8,0.2,1.9,0.3,2.8h10.4L422.5,216.2z"/>
				<path fill="#39B54A" d="M415.6,225.2h25.2c0.1-0.8,0.1-1.8,0.3-2.8h-25.6C415.4,223.4,415.5,224.5,415.6,225.2z"/>
				<path fill="#39B54A" d="M415.7,231.4h24.8c0-1,0.1-2,0.1-2.8h-24.9C415.7,229.4,415.7,230.4,415.7,231.4z"/>
				<path fill="#39B54A" d="M415.8,237.6h24.7c0-1,0-1.9,0-2.8h-24.8C415.8,235.7,415.8,236.6,415.8,237.6z"/>
				<path fill="#39B54A" d="M415.8,243.8h24.6c0-0.9,0-1.9,0-2.8h-24.7C415.8,241.8,415.8,242.8,415.8,243.8z"/>
				<path fill="#39B54A" d="M415.8,249.9h24.6c0-0.8,0-1.8,0-2.8h-24.6C415.8,248.1,415.8,249,415.8,249.9z"/>
			</g>
			<g>
				<path fill="#262626" d="M440.5,249.2c0.9,5.4,0.7,10.8-1,29.1c-0.3,2.4,2.3,16.6-0.1,28.8h-8.7c0,0-1.7-11.3-0.3-29
					c0.1-1.3-0.5-5.5-0.7-6.8c-0.6-6.3-0.6-10.9-0.8-12.4c-0.1-0.3-0.8-0.3-0.9-0.3v-9.6C428.1,249.2,440.5,249.2,440.5,249.2z"/>
			</g>
			<polygon fill="#FDD09E" points="437.7,313.6 437.5,307.1 437.3,313.6 			"/>
			<path fill="#FDD09E" d="M445.8,253.3c0,0,0.1,1.2-0.5,2c-0.5,0.8-0.4,3.2-0.4,3.7s0.7,0.8,0.9-0.1c0.3-1.2,0.5-1.9,0.5-1.9
				s0.9,1,0.9,2.7c0,1.7-0.8,2.6,0.1,2.6c1-0.1,2.4-0.8,3-2.3c0.5-1.5-1.8-6.8-1.8-6.8L445.8,253.3L445.8,253.3z"/>
			<path fill="#39B54A" d="M441.8,213.8c0,0,7.3,4.4,7.9,28.9c0.3,8.9,0.2,11.5,0.2,11.5l-5.3,0.1c0,0-0.4-10.4-0.9-15.2
				c-0.4-4.2-3-7.8-3-10.5C440.5,225.7,441.8,213.8,441.8,213.8z"/>
			<g>
				<path fill="#515151" d="M434.6,313.7c-0.8,0-2.8-0.3-3.2-0.8c0,0,0.1-0.6,0.3-1.4c0.7-0.5,1.8-0.7,3-0.7c1.2,0,2.3,0.3,3,0.7
					c0.1,0.8,0.2,1.4,0.2,1.4C437.3,313.5,435.4,313.7,434.6,313.7z"/>
				<path fill="#262626" d="M437,307.3L437,307.3c0-0.3,0-0.6-0.2-0.9c-0.5-0.6-0.4-2.1-0.4-2.1v0.1c0-0.1,0-0.1,0-0.1h-3.8
					c0,0.1,0,0.1,0,0.1v-0.1c0,0,0.1,1.4-0.3,2.1c-0.3,0.5-0.2,1.2-0.1,1.5c-0.2,0.9-0.5,2.4-0.6,3.5c0.7-0.5,1.8-0.7,3-0.7
					c1.2,0,2.3,0.3,3,0.7C437.3,310,437.1,307.8,437,307.3z"/>
				<path fill="#262626" d="M434.6,313.5c0,0,2.3,0.1,3.2-0.6v2.1c-0.6,0.3-3.2,0.4-3.2,0.4s-2.6,0-3.2-0.4v-2.1
					C432.3,313.5,434.6,313.5,434.6,313.5z"/>
			</g>
			<g>
				<path fill="#515151" d="M421.5,313.7c0.8,0,2.8-0.3,3.2-0.8c0,0-0.1-0.6-0.3-1.4c-0.7-0.5-1.8-0.7-3-0.7c-1.2,0-2.3,0.3-3,0.7
					c-0.1,0.8-0.1,1.4-0.1,1.4C418.7,313.5,420.7,313.7,421.5,313.7z"/>
				<path fill="#262626" d="M419,307.3L419,307.3c0-0.3,0-0.6,0.1-0.9c0.5-0.6,0.4-2.1,0.4-2.1v0.1c0-0.1,0-0.1,0-0.1h3.8
					c0,0.1,0,0.1,0,0.1v-0.1c0,0-0.1,1.4,0.3,2.1c0.3,0.5,0.2,1.2,0.1,1.5c0.1,0.9,0.5,2.4,0.6,3.5c-0.7-0.5-1.8-0.7-3-0.7
					c-1.2,0-2.3,0.3-3,0.7C418.7,310,418.9,307.8,419,307.3z"/>
				<path fill="#262626" d="M421.5,313.5c0,0-2.3,0.1-3.2-0.6v2.1c0.6,0.3,3.2,0.4,3.2,0.4s2.6,0,3.2-0.4v-2.1
					C423.8,313.5,421.5,313.5,421.5,313.5z"/>
			</g>
			<g>
				<path fill="#515151" d="M415.8,249.2c-0.9,5.4-0.9,10.8,0.8,29.1c0.3,2.4-1.5,19.2,0.6,28.8h8c0,0,1.7-11.3,0.3-29
					c-0.1-1.3,0.5-5.5,0.7-6.8c0.6-6.3,0.6-11,0.8-12.5c0.1-0.3,0.8-0.1,0.9-0.1l0.1-1.2l-0.1-8.4H415.8L415.8,249.2z"/>
			</g>
			<path fill="#FDC486" d="M428.1,204.5L428.1,204.5v9.3l0,0c2.4,0,3.7,0,3.7,0l-0.5-10L428.1,204.5z"/>
			<path fill="#FDDBAE" d="M428.1,204.5L428.1,204.5v9.3l0,0c-2.4,0-3.7-0.3-3.7-0.3l0.5-9.7L428.1,204.5z"/>
			<path fill="#FDDBAE" d="M434.4,199.6c0,0-0.1,6.2-0.9,7.5c-0.6,1-2.8,2.4-5.4,2.4v-18.7C428.1,190.8,435.5,189.8,434.4,199.6z"/>
			<path fill="#FDDBAE" d="M436.1,201.2c-0.2,1.5-0.9,2.6-1.8,2.6c-1.4,0-1.2-1.4-1.2-2.9c0-1.9,0.5-2.2,1.7-2.2
				C435.7,198.8,436.3,199.8,436.1,201.2z"/>
			<path fill="#FFE5BA" d="M421.9,199.6c0,0,0.1,6.2,0.9,7.5c0.6,1,2.8,2.4,5.4,2.4v-18.7C428.1,190.8,420.8,189.8,421.9,199.6z"/>
			<path fill="#FFE5BA" d="M420.2,201.2c0.2,1.5,0.9,2.6,1.8,2.6c1.4,0,1.2-1.4,1.2-2.9c0-1.9-0.5-2.2-1.7-2.2
				C420.5,198.8,420,199.8,420.2,201.2z"/>
			<path fill="#39B54A" d="M437,213.1l-3.6-0.5l-5.2-0.3l-5.2,0.3l-3.6,0.5c0,0,0.1,12.6,8.9,12.6C436.2,225.7,437,213.1,437,213.1z
				"/>
			<path fill="#FFDE17" d="M435.6,188.1c-2.4,1.7-10.8,0-12,2.7c-0.1,0.1,0,0.1,0,0.2l0,0c-0.8-0.1-2.6,0-2.9,2
				c-0.1,1.5,0.1,3.2,0.4,4.8c0.3,2,1,3.1,1,3.1s0.5-2.5,0.6-3.3c0.1-0.7,0.3-1.7,0.5-2.8c0.5,0.3,1.9,1,4.8,1.4l0,0l0,0
				c1.4,0.2,3.2,0.4,5.2,0.4c0.1,0.4,0.2,0.8,0.2,1c0.2,0.8,0.6,3.3,0.6,3.3s1.1-1.8,1.1-5.1c0-1.1,0-1.7,0-1.7l-0.1-0.1
				c0-0.1-0.1-0.3-0.1-0.5C437.5,191.5,435.6,188.1,435.6,188.1z"/>
			<path fill="#F7F7F7" d="M428.1,212.4c0,0,2.3-0.8,3.6-1.5l1.7,1.8l-2.8,4L428.1,212.4z"/>
			<path fill="#F7F7F7" d="M428.1,212.4c0,0-2.3-0.8-3.6-1.5l-1.7,1.8l2.8,4L428.1,212.4z"/>
			<path fill="#FDD09E" d="M411.2,254.2c0.5,0.8,0.5,2.8,0.5,3.3c0,0.5-0.7,0.8-0.9-0.1c-0.3-1.2-0.5-1.9-0.5-1.9s-0.3,0.9-0.3,2.6
				s0.2,2.8-0.8,2.8c-1-0.1-2.4-0.8-3-2.3c-0.5-1.5,0.9-4.4,0.9-4.4L411.2,254.2z"/>
		</g>
	</g>
	<g>
		<g>
			<path fill="#6C3F26" d="M620.8,242.9c0-0.1-0.1-0.1-0.1-0.3c-0.1-5.9,0.3-8.9-0.6-12c-0.3-1-3.9-1.8-3.9-0.8
				c-0.3,4.4,0,8.2,1.4,13.4c-0.4,6.4,1,14,1,14s-0.4,0.6-0.8,2c-0.3,1-0.8,2.3-0.5,2.4c0.6,0.1,0.8-0.3,1.5-1.5
				c0.1-0.1,0.5-0.5,0.7,0.3c0.4,1.2-0.1,1.7-0.1,1.9c0,0.3-1.4,2.6-1,2.7c0.5,0.2,1.3-1.1,1.4-1.3c0.8-1.2,1-2.3,1-2.6
				c0.1-1.5,0.1-3.7,0.1-3.7S621.1,245.8,620.8,242.9z"/>
			<path fill="#6C3F26" d="M594.6,229.8c-0.1-1-3.7-0.1-3.9,0.8c-0.8,3.2-0.5,6.2-0.6,12.2c0,0.1,0.1,0.1,0.1,0.1
				c-1.2,3.1-4,13.8-4,13.8s-0.6,2.1-0.9,3.6c-0.1,0.3-0.1,1.4,0.3,2.7c0.1,0.3,0.5,1.7,1,1.6c0.5-0.1-0.3-2.6-0.2-2.9
				c0.1-0.3-0.3-0.8,0.4-1.9c0.4-0.6,0.7-0.1,0.7-0.1c0.4,1.4,0.4,1.9,1,1.9c0.4,0,0.2-1.4,0.3-2.5c0.1-1.5-0.2-2.1-0.2-2.1
				s3.4-7,4.7-13.3c0.1-0.1,0.1-0.4,0-0.6l0.1-0.1C594.6,238,594.9,234.2,594.6,229.8z"/>
			<path fill="#39B54A" d="M619.3,224.6c-1.2-2.1-3.8-2.5-5.7-3l0,0l-4.3-0.6h-3.8h-3.8l-4.3,0.6c-1.9,0.5-4.6,0.8-5.7,3
				c-0.5,0.8-1.7,4.3-1.7,10.7h4.7l0.6-3.9h0.5c-0.3,1.7-0.5,3.1,0.5,4.6c0.3,0.5,0.8,0.8,1.4,1.1l0.6,7.7h7.1h7.1l0.6-7.7
				c0.6-0.3,1.2-0.6,1.4-1.1c1-1.5,0.8-3,0.5-4.6h0.5l0.6,3.9h4.7C620.9,228.8,619.7,225.4,619.3,224.6z"/>
			<path fill="#262626" d="M612.1,204.3c0,0,4.2,5,1.5,8.6c0,0,2.8,1.7,0.3,4.2c0,0-0.2,3.9-4.7,3.3c-1.9-0.3-2.3-6.2-1.8-7.3
				C607.8,212,609.9,203.7,612.1,204.3z"/>
			<path fill="#7B533C" d="M605.4,214.7v6l0,0v3.3c0,0,3.8-0.8,3.8-3.3v-6H605.4z"/>
			<path fill="#FDD09E" d="M604,307.5c-0.4-0.6-0.2-3.2-0.2-3.2l-0.6,3.6l-2.5-3.6c0,0,0.1,2.6-0.2,3.2c-0.3,0.6,0,1.7,0,1.7
				l1.8,1.9l1.8-1.9C604,309.1,604.3,308,604,307.5z"/>
			<polygon fill="#FDD09E" points="605.6,259.9 605.4,253.4 605.2,259.9 			"/>
			<path fill="#39B54A" d="M604,309.1c0,0-0.8-0.6-1.8-0.6c-0.9,0-1.8,0.6-1.8,0.6c-0.3,1.3-0.7,4.1-0.7,4.1
				c0.7,1.2,2.5,1.1,2.5,1.1s1.8,0.1,2.5-1.1C604.7,313.3,604.3,310.4,604,309.1z"/>
			<path fill="#FDC486" d="M606.9,307.6c0.3-0.6,0.2-3.2,0.2-3.2l0.6,3.6l2.5-3.6c0,0-0.1,2.6,0.2,3.2c0.3,0.6,0,1.7,0,1.7l-1.8,1.9
				l-1.8-1.9C606.9,309.3,606.5,308.2,606.9,307.6z"/>
			<g>
				<path fill="#6C3F26" d="M605.2,259.9l0.2-6.5l-0.3-7.6h-8.2c0,0-4.9,1.4-0.7,24.8c0.9,4.9,2.1,7,2.8,10.2
					c0.8,3.9-0.1,6.6,0.1,10c0.5,7.9,1.7,16,2.2,18.7h1.9c0.4-2.8,1.7-12.1,1.7-18.7c0-3.4-0.5-4.8-0.5-9.6c0-4.4,0.7-8,0.7-11.5
					c0-6.4-0.2-5.9-0.1-9.8L605.2,259.9L605.2,259.9L605.2,259.9z"/>
				<path fill="#6C3F26" d="M614.6,270.8c4.2-23.4-0.7-24.8-0.7-24.8h-8.2l-0.3,7.6l0.2,6.5h0.3c0,4-0.1,3.5-0.1,9.8
					c0,3.5,0.7,7.2,0.7,11.5c0,4.8-0.5,6.2-0.5,9.6c0,6.6,1.2,15.8,1.7,18.7h1.9c0.5-2.6,1.7-10.8,2.2-18.7c0.2-3.5-0.8-6.2,0.1-10
					C612.4,277.7,613.7,275.7,614.6,270.8z"/>
			</g>
			<path fill="#39B54A" d="M606.9,309.3c0,0,0.8-0.6,1.8-0.6c0.9,0,1.8,0.6,1.8,0.6c0.3,1.3,0.7,4.1,0.7,4.1
				c-0.7,1.2-2.5,1.1-2.5,1.1s-1.8,0.1-2.5-1.1C606.2,313.5,606.6,310.6,606.9,309.3z"/>
			<g>
				<g>
					<path fill="#E24512" d="M599.7,313.3v1.5c0.5,0.3,2.5,0.3,2.5,0.3s2.1,0,2.5-0.3v-1.5c0,0-0.7,0.4-2.5,0.4
						C600.4,313.7,599.7,313.3,599.7,313.3z"/>
					<path fill="#E24512" d="M608.6,313.8c-1.8,0-2.5-0.4-2.5-0.4v1.5c0.5,0.3,2.5,0.3,2.5,0.3s2.1,0,2.5-0.3v-1.5
						C611.2,313.5,610.4,313.8,608.6,313.8z"/>
				</g>
			</g>
			<path fill="#262626" d="M598.3,204.3c-1.9,1.2-4.2,5-1.5,8.6c0,0-2.8,1.7-0.3,4.2c0,0,0.2,3.9,4.7,3.3c1.9-0.3,2.3-6.2,1.8-7.3
				C602.7,212,600.3,203,598.3,204.3z"/>
			<path fill="#A8A8A8" d="M610.3,206.1c0,0,0.3,3.3,0.5,3.8c0.1,0.2,0.3-1.4,0.3-1.7C611.1,207.9,611.8,205.5,610.3,206.1z"/>
			<path fill="#929292" d="M600.1,206.1c0,0-0.3,3.3-0.5,3.8c-0.1,0.2-0.3-1.4-0.3-1.7S598.7,205.5,600.1,206.1z"/>
			<path fill="#88634F" d="M605.4,214.7h-3.8v6c0,2.6,3.8,3.3,3.8,3.3v-3.3l0,0V214.7z"/>
			<path fill="#7B533C" d="M611.9,208.3c-0.2,0-0.5,0.2-0.7,0.4c0-0.3,0.1-0.6,0.1-0.9c0.1-1.5,0.4-5.3-3.3-5.3c-2.3,0-2.4,0-2.4,0
				s-0.2,0-2.4,0c-3.7,0-3.3,3.9-3.3,5.3c0,0.3,0.1,0.6,0.1,0.9c-0.3-0.2-0.5-0.4-0.7-0.4c-0.5,0-0.8,0.8-0.8,1.2
				c-0.1,0.5,0.6,2.4,0.7,2.7c0.1,0.3,0.6,0.7,0.9,0.3c0.1-0.1,0.1-0.1,0.1-0.1c0.1,0.6,0.1,1.2,0.1,1.8c0,2.4,2.1,3,2.7,3.6
				c1.1,1.1,2.8,1,2.8,1s1.7,0.1,2.8-1c0.6-0.6,2.7-1.2,2.7-3.6c0-0.6,0-1.2,0.1-1.8c0.1,0.1,0.1,0.1,0.1,0.1
				c0.3,0.5,0.8-0.1,0.9-0.3c0.1-0.3,0.8-2.2,0.7-2.7C612.6,209.1,612.4,208.3,611.9,208.3z"/>
			<path fill="#39B54A" d="M612.6,242l-8.6,1.5l-5.7-1.5c-8,6.7-5.2,48.8-5.2,48.8s2.6,0,8.9,0c1,0,2.2,0,3.5,0c7.1,0,12.4,0,12.4,0
				S620.6,248.7,612.6,242z M605.4,243.9L605.4,243.9L605.4,243.9L605.4,243.9z"/>
			<g>
				<path fill="#262626" d="M608.4,199.6c-0.8,0.1-1.7,0.3-2.4,0.4v3.9c2.4,0.5,4.9,0.8,5.4,0.1C612.5,202.7,612.4,199,608.4,199.6z
					"/>
				<path fill="#262626" d="M601,202.7c0,0,2.4,0.8,4.9,1.4v-3.9C602.8,200.6,600.3,201.6,601,202.7z"/>
			</g>
			<path fill="#262626" d="M599.9,208.6c0,0,1.4-2.3,1.8-4c0.3-1.5-0.6-2.4-0.6-2.4s-5.3,0.3-1.2,7.6V208.6z"/>
			<path fill="#262626" d="M611,208.6c0,0-1.4-2.3-1.8-4c-0.3-1.5,0.6-2.4,0.6-2.4s5.3,0.3,1.2,7.6V208.6z"/>
			<rect x="597.8" y="240.1" fill="#E24512" width="15.4" height="2.3"/>
			<circle fill="#E24512" cx="599.5" cy="212" r="0.3"/>
			<circle fill="#E24512" cx="611.4" cy="212" r="0.3"/>
		</g>
		<g>
			<g>
				<path fill="#515151" d="M544.2,313.9c-0.7,0-2.5-0.2-2.8-0.8c0,0,0.1-0.5,0.2-1.2c0.6-0.4,1.5-0.6,2.6-0.6s2,0.3,2.6,0.6
					c0.1,0.7,0.1,1.2,0.1,1.2C546.6,313.7,544.9,313.9,544.2,313.9z"/>
				<path fill="#262626" d="M546.3,308.3L546.3,308.3c0-0.3,0-0.6-0.2-0.8c-0.4-0.6-0.3-1.9-0.3-1.9v0.1c0-0.1,0-0.1,0-0.1h-3.4
					c0,0.1,0,0.1,0,0.1v-0.1c0,0,0.1,1.3-0.3,1.9c-0.3,0.4-0.1,1-0.1,1.4c-0.1,0.8-0.4,2.1-0.6,3.1c0.6-0.4,1.5-0.6,2.6-0.6
					c1.1,0,2,0.3,2.6,0.6C546.7,310.7,546.4,308.7,546.3,308.3z"/>
				<path fill="#262626" d="M544.2,313.7c0,0,2,0.1,2.8-0.5v1.8c-0.5,0.3-2.8,0.3-2.8,0.3s-2.3,0-2.8-0.3v-1.8
					C542.2,313.7,544.2,313.7,544.2,313.7z"/>
			</g>
			<g>
				<path fill="#515151" d="M532.7,313.9c0.7,0,2.5-0.2,2.8-0.8c0,0-0.1-0.5-0.2-1.2c-0.6-0.4-1.5-0.6-2.6-0.6c-1,0-2,0.3-2.6,0.6
					c-0.1,0.7-0.2,1.2-0.2,1.2C530.3,313.7,532,313.9,532.7,313.9z"/>
				<path fill="#262626" d="M530.6,308.3L530.6,308.3c0-0.3,0-0.6,0.1-0.8c0.4-0.6,0.3-1.9,0.3-1.9v0.1c0-0.1,0-0.1,0-0.1h3.3
					c0,0.1,0,0.1,0,0.1v-0.1c0,0-0.1,1.3,0.3,1.9c0.3,0.4,0.2,1,0.1,1.4c0.2,0.8,0.4,2.1,0.6,3.1c-0.6-0.4-1.5-0.6-2.6-0.6
					c-1,0-2,0.3-2.6,0.6C530.3,310.7,530.5,308.7,530.6,308.3z"/>
				<path fill="#262626" d="M532.7,313.7c0,0-2,0.1-2.8-0.5v1.8c0.5,0.3,2.8,0.3,2.8,0.3s2.3,0,2.8-0.3v-1.8
					C534.7,313.7,532.7,313.7,532.7,313.7z"/>
			</g>
			<g>
				<path fill="#515151" d="M527.8,257.1c-0.8,4.8-0.8,9.5,0.8,25.6c0.2,2.1-1.4,16.8,0.6,25.3h7.1c0,0,1.5-10,0.3-25.5
					c-0.1-1.2,0.5-4.8,0.6-5.9c0.6-5.5,0.6-9.7,0.7-10.9c0-0.2,0.7-0.1,0.8-0.1l0.1-1l-0.1-7.3L527.8,257.1L527.8,257.1z"/>
			</g>
			<g>
				<path fill="#262626" d="M549.4,257.1c0.8,4.8,0.6,9.5-0.9,25.6c-0.2,2.1,2.1,14.5-0.1,25.3h-7.7c0,0-1.5-10-0.3-25.5
					c0.1-1.2-0.5-4.8-0.6-5.9c-0.6-5.5-0.6-9.6-0.7-10.9c0-0.2-0.7-0.2-0.8-0.2v-8.4C538.6,257.1,549.4,257.1,549.4,257.1z"/>
			</g>
			<path fill="#009ED4" d="M547.4,236c0.4,1.2,2.1,1.2,3.5,1.1c0.1,0.5,0.1,1.1,0.3,1.8l5.4-4c-0.6-1.8-2.4-6.6-5.1-8.8
				c-1.5-1.2-2.6-0.2-2.7,0.7c0,0-0.9,4.1-0.1,6.9C548.7,233.9,547.4,236,547.4,236z"/>
			<path fill="#6C3F26" d="M560.7,262.9c0,0,0.9-14-1.9-17.2c-0.1-0.1-0.2-0.1-0.3-0.2c0.2-1.7,0.3-3.6-0.1-5.5
				c-0.4-1.8-0.8-3.8-1.9-5c0-0.1-0.1-0.1-0.1-0.1l-5.4,4c0.4,2.6,1.4,6.3,3.4,7.2c0.1,0,0.1,0.1,0.1,0.1c-0.1,0.1-0.1,0.1-0.1,0.1
				c-0.4,4.1,2.1,9.6,3.6,14.9c0.1,0.5-1.2,0.6-1,2c0.3,1.9-0.1,4,0.2,4.1c0.5,0.3,0.7-0.1,1-1.4c0.1-0.3,0.6-0.4,0.6-0.1
				c0.1,0.7,0.3,1.6,0.3,1.9s-1.7,2.8-1,3.2c0.5,0.3,1.7-1.7,1.7-1.9c0.6-1.2,0.9-1.9,0.9-2.2C561,266.6,560.7,262.9,560.7,262.9z"
				/>
			<path fill="#6C3F26" d="M525.6,238.9l-5.7-3.5c0,0.1-0.1,0.1-0.1,0.1c-0.9,1.3-1.2,3.3-1.4,5.1c-0.1,1.9,0.1,3.9,0.5,5.5
				c-0.1,0.1-0.3,0.1-0.3,0.3c-2.4,3.5-0.1,17.2-0.1,17.2s0.1,3.7,0.1,4c0.1,0.3,0.4,1,1.2,2.1c0.1,0.2,1.5,2,1.9,1.7
				c0.7-0.5-0.9-2.6-0.9-2.9c-0.1-0.3-0.1-0.9,0-1.5c0.1-0.3,0.3-0.7,0.4-0.5c0.7,2.5,1,2,1.5,1.7c0.3-0.2-0.7-2.7-0.6-4.6
				c0.1-1.4-1.2-1.4-1.2-1.9c1-5.4,2.9-11.1,2.1-15.2c0-0.1-0.1-0.1-0.1-0.1c0.1-0.1,0.1-0.1,0.1-0.1
				C524.9,245.4,525.5,241.6,525.6,238.9z"/>
			<path fill="#6DCEF5" d="M549.2,238.6l0.1-2.1c-0.1-1.2-0.3-2.5-0.3-3.9c0-2.8,0.4-5.4,1-6.9l-11.6-1.2l-11.6,1.2
				c0,0-2.3,0.4-3.5,1.3c-2.7,2.1-3,6.7-3.4,8.6l5.7,3.5c0.1-0.7,0.1-1.4,0.1-1.8c0.1,0,0.1,0,0.1,0l0.8,8.2l0.1,15.4h11.6h0.2h11.6
				L549.2,238.6z"/>
			<g>
				<path fill="#6C3F26" d="M538.4,219v7.7v3.2l0,0c1.7,0,3.7-1.4,3.7-3.2l-0.6-7.7L538.4,219L538.4,219z"/>
				<path fill="#7B533C" d="M538.4,219v7.7v3.2l0,0c-1.7,0-3.7-1.4-3.7-3.2l0.6-7.7L538.4,219L538.4,219z"/>
				<path fill="#6C3F26" d="M544.3,213.8c-0.1,0-0.3,0-0.3,0c0.5-7.9-5.5-7-5.5-7s-6-0.8-5.5,7c-0.1,0-0.2,0-0.3,0
					c-0.8,0-1.3,0.9-1.1,2.2c0.2,1.4,0.8,2.3,1.6,2.3c0.1,0,0.1,0,0.1,0c0.1,1.2,0.3,2.3,0.6,2.8c0.6,0.9,2.5,2.1,4.8,2.1
					s4.2-1.2,4.8-2.1c0.3-0.5,0.5-1.5,0.6-2.8c0.1,0,0.1,0,0.1,0c0.8,0,1.4-1,1.6-2.3C545.6,214.7,545.1,213.8,544.3,213.8z"/>
				<g>
					<g>
						<g>
							<path fill="#262626" d="M544.7,211.1c0,3-1,4.5-1,4.5s-0.4-2.3-0.6-3c-0.3-1.3-0.8-4.1-0.4-5.2l2,2.2
								C544.7,209.7,544.7,210.2,544.7,211.1z"/>
						</g>
						<path fill="#262626" d="M544.7,209.9c0-2.3-2.1-4.1-4.6-4.1h-2l0.3,5.5c1.2,0.2,3,0.3,4.9,0.3c1.5,0,1.4-1.5,1.4-1.5
							C544.7,210.1,544.7,210,544.7,209.9z"/>
						<path fill="#262626" d="M538.4,205.9h-1.5c-2.4,0-4.6,4.3-4.6,5.3c0,3,1,4.5,1,4.5s0.4-2.3,0.6-3c0.1-0.6,0.3-1.5,0.4-2.5
							c0.4,0.3,1.7,0.9,4.2,1.2L538.4,205.9L538.4,205.9z"/>
					</g>
					<path fill="#262626" d="M534.8,207.1c0,0-2.6-0.5-2.8,1.7c-0.2,2.3,0.5,5.2,1.2,6.8C533.2,215.6,533.5,207.5,534.8,207.1z"/>
					<path fill="#262626" d="M534.3,206.8c1-2.4,8.4-0.9,10.5-2.4c0,0,1.9,3.5-1,5.2C543.8,209.6,533.7,208.4,534.3,206.8z"/>
				</g>
			</g>
		</g>
		<g>
			<g>
				<path fill="#515151" d="M574.4,313.7c-0.8,0-2.8-0.3-3.2-0.8c0,0,0.1-0.6,0.3-1.4c0.7-0.5,1.8-0.7,3-0.7c1.2,0,2.3,0.3,3,0.7
					c0.1,0.8,0.1,1.4,0.1,1.4C577.1,313.5,575.2,313.7,574.4,313.7z"/>
				<path fill="#262626" d="M576.8,307.3L576.8,307.3c0-0.3,0-0.6-0.1-0.9c-0.5-0.6-0.4-2.1-0.4-2.1v0.1c0-0.1,0-0.1,0-0.1h-3.8
					c0,0.1,0,0.1,0,0.1v-0.1c0,0,0.1,1.4-0.3,2.1c-0.3,0.5-0.2,1.2-0.1,1.5c-0.2,0.9-0.5,2.4-0.6,3.5c0.7-0.5,1.8-0.7,3-0.7
					c1.2,0,2.3,0.3,3,0.7C577.2,310,576.9,307.8,576.8,307.3z"/>
				<path fill="#262626" d="M574.4,313.5c0,0,2.3,0.1,3.2-0.6v2.1c-0.6,0.3-3.2,0.4-3.2,0.4s-2.6,0-3.2-0.4v-2.1
					C572.2,313.5,574.4,313.5,574.4,313.5z"/>
			</g>
			<g>
				<path fill="#515151" d="M561.3,313.7c0.8,0,2.8-0.3,3.2-0.8c0,0-0.1-0.6-0.3-1.4c-0.7-0.5-1.8-0.7-3-0.7c-1.2,0-2.3,0.3-3,0.7
					c-0.1,0.8-0.1,1.4-0.1,1.4C558.6,313.5,560.5,313.7,561.3,313.7z"/>
				<path fill="#262626" d="M558.9,307.3L558.9,307.3c0-0.3,0-0.6,0.2-0.9c0.5-0.6,0.4-2.1,0.4-2.1v0.1c0-0.1,0-0.1,0-0.1h3.8
					c0,0.1,0,0.1,0,0.1v-0.1c0,0-0.1,1.4,0.3,2.1c0.3,0.5,0.2,1.2,0.1,1.5c0.1,0.9,0.5,2.4,0.6,3.5c-0.7-0.5-1.8-0.7-3-0.7
					c-1.2,0-2.3,0.3-3,0.7C558.4,310,558.8,307.8,558.9,307.3z"/>
				<path fill="#262626" d="M561.3,313.5c0,0-2.3,0.1-3.2-0.6v2.1c0.6,0.3,3.2,0.4,3.2,0.4s2.6,0,3.2-0.4v-2.1
					C563.5,313.5,561.3,313.5,561.3,313.5z"/>
			</g>
			<path fill="#6C3F26" d="M586.2,253.7c0,0-0.9,1.2-1.4,2c-0.5,0.8-0.4,3.2-0.4,3.7c0,0.5,0.7,0.8,0.9-0.1c0.3-1.2,0.5-1.9,0.5-1.9
				s0.9,1,0.9,2.7c0,1.7-0.8,2.6,0.1,2.6c1-0.1,2.4-0.8,3-2.3c0.5-1.5-1.8-6.8-1.8-6.8L586.2,253.7L586.2,253.7z"/>
			<polygon fill="#E6E7E8" points="585,253.7 585,255 589.2,255 589.2,253.5 			"/>
			<g>
				<path fill="#515151" d="M567.6,249.7c-5.1,0-11.5-0.6-11.5-0.6c-0.9,5.4-1.2,10.8,0.5,29.1c0.3,2.4-1.5,19.2,0.6,28.8h8
					c0,0,1.7-11.3,0.3-29c-0.1-1.3,0.5-5.5,0.7-6.8c0.6-6.3,0.6-11,0.8-12.5c0.1-0.3,0.8-0.1,0.9-0.1l0.1-1.2v-7.9
					C567.8,249.7,567.6,249.7,567.6,249.7z"/>
			</g>
			<path fill="#EC1E24" d="M581.6,213.8c0,0,7.3,4.4,7.9,28.9c0.3,8.9,0.2,11.5,0.2,11.5l-5.3,0.1c0,0-0.4-10.4-0.9-15.2
				c-0.4-4.2-4.4-13.1-4.4-13.1L581.6,213.8z"/>
			<g>
				<path fill="#262626" d="M568.2,249.7c5.1,0,11.5-0.6,11.5-0.6c0.9,5.4,1.2,10.8-0.5,29.1c-0.3,2.4,2.3,16.6-0.1,28.8h-8.7
					c0,0-1.7-11.3-0.3-29c0.1-1.3-0.5-5.5-0.7-6.8c-0.6-6.3-0.6-10.9-0.8-12.4c-0.1-0.3-0.8-0.3-0.9-0.3v-9
					C568,249.7,568.1,249.7,568.2,249.7z"/>
			</g>
			<path fill="#EC1E24" d="M581.6,213.8l-4.8-0.6l-8.8,15l-0.1,25.6h12.4c0,0,1.6-21.6,1.8-29.1
				C582.1,222.1,581.6,213.8,581.6,213.8z"/>
			<path fill="#6C3F26" d="M568,204.5L568,204.5v9.3l0,0c2.4,0,3.7,0,3.7,0l-0.5-10L568,204.5z"/>
			<path fill="#896551" d="M568,204.5L568,204.5v9.3l0,0c-2.4,0-3.7-0.3-3.7-0.3l0.5-9.7L568,204.5z"/>
			<path fill="#7B533C" d="M574.7,198.8c-0.1,0-0.3,0-0.4,0c0.6-8.9-6.3-8-6.3-8s-6.9-0.9-6.3,8c-0.1,0-0.3,0-0.4,0
				c-0.9,0-1.4,1-1.2,2.5s0.9,2.6,1.8,2.6c0.1,0,0.1,0,0.1,0c0.1,1.4,0.3,2.6,0.6,3.2c0.6,1,2.8,2.4,5.4,2.4s4.8-1.4,5.4-2.4
				c0.3-0.5,0.5-1.8,0.6-3.2c0.1,0,0.1,0,0.1,0c0.9,0,1.6-1.2,1.8-2.6C576.1,199.8,575.6,198.8,574.7,198.8z"/>
			<polygon fill="#39B54A" points="568,212.4 568,228.1 576.8,213.1 573.2,212.7 			"/>
			<path fill="#6C3F26" d="M549.7,253.7c0,0,0.9,1.2,1.4,2c0.5,0.8,0.4,3.2,0.4,3.7c0,0.5-0.7,0.8-0.9-0.1c-0.3-1.2-0.5-1.9-0.5-1.9
				s-0.9,1-0.9,2.7c0,1.7,0.8,2.6-0.1,2.6c-1-0.1-2.4-0.8-3-2.3c-0.5-1.5,1.8-6.8,1.8-6.8L549.7,253.7L549.7,253.7z"/>
			<polygon fill="#E6E7E8" points="551,253.7 551,255 546.7,255 546.7,253.5 			"/>
			<path fill="#EC1E24" d="M554.3,213.8c0,0-7.3,4.4-7.9,28.9c-0.3,8.9-0.2,11.5-0.2,11.5l5.3,0.1c0,0,0.4-10.4,0.9-15.2
				c0.4-4.2,4.4-13.1,4.4-13.1L554.3,213.8z"/>
			<path fill="#EC1E24" d="M554.3,213.8l4.8-0.6l8.8,14.9l0.1,25.6h-12.4c0,0-1.6-21.6-1.8-29.1
				C553.8,222.1,554.3,213.8,554.3,213.8z"/>
			<polygon fill="#39B54A" points="568,212.4 568,228.1 559.2,213.1 562.8,212.7 			"/>
			<path fill="#F7F7F7" d="M568,212.4c0,0,2.3-0.8,3.6-1.5l1.7,1.8l-2.8,4L568,212.4z"/>
			<path fill="#F7F7F7" d="M568,212.4c0,0-2.3-0.8-3.6-1.5l-1.7,1.8l2.8,4L568,212.4z"/>
			<g>
				<path fill="#929292" d="M565.7,198.4c-1,0-1.7,0.8-1.7,1.7c0,1,0.8,1.7,1.7,1.7c1,0,1.7-0.8,1.7-1.7
					C567.5,199.2,566.6,198.4,565.7,198.4z"/>
				<path fill="#929292" d="M570.5,198.4c-1,0-1.7,0.8-1.7,1.7c0,1,0.8,1.7,1.7,1.7c1,0,1.7-0.8,1.7-1.7
					C572.2,199.2,571.4,198.4,570.5,198.4z"/>
				<path fill="#1C1C1C" d="M572.4,199.9c-0.1-1-0.9-1.7-1.9-1.7c-1.1,0-1.9,0.9-2,1.9h-0.8c0-1.1-0.9-1.9-2-1.9
					c-1,0-1.8,0.8-1.9,1.7l-1.5-1.9l-0.1,0.1l1.6,2c0.1,1,0.9,1.9,2,1.9c1,0,1.8-0.8,1.9-1.8h0.9v-0.1c0.1,1.1,0.9,1.9,2,1.9
					c1.1,0,1.9-0.8,2-1.9l1.4-1.7l-0.1-0.1L572.4,199.9z M565.7,201.9c-1,0-1.7-0.8-1.7-1.7c0-1,0.8-1.7,1.7-1.7
					c1,0,1.7,0.8,1.7,1.7C567.5,201.1,566.6,201.9,565.7,201.9z M570.5,201.9c-1,0-1.7-0.8-1.7-1.7c0-1,0.8-1.7,1.7-1.7
					c1,0,1.7,0.8,1.7,1.7C572.2,201.1,571.4,201.9,570.5,201.9z"/>
			</g>
			<path fill="#262626" d="M574.7,204.5c0-0.3-0.2-0.5-0.3-0.6c-0.1-0.1-0.5-0.6-0.5-0.7c0,0.1,0.3,1-0.3,1.5
				c-0.1,0.1-0.1,0.6-0.3,0.7c-0.1,0.1-0.1,0.3-0.1,0.5c0,0.3,0,0.5-0.1,0.7c-0.2,0.1-0.4,0.3-0.6,0.3c-0.2,0.1-0.4,0.1-0.5,0.1
				c-0.1,0.1-0.2,0.3-0.3,0.5c-0.1,0.3-0.2,0.5-0.4,0.6c-0.1,0.1-0.2,0.1-0.3,0.1s-0.3-0.1-0.4-0.1c-0.2-0.1-0.4-0.1-0.5,0
				c-0.1,0.1-0.3,0.2-0.4,0.4c-0.1,0.2-0.3,0.4-0.6,0.5c-0.1,0-0.1,0-0.1,0c-0.2,0-0.4-0.1-0.6-0.2c-0.1-0.1-0.3-0.1-0.5-0.2l0,0
				l0,0l0,0l0,0l0,0l0,0c-0.1,0-0.3,0.1-0.5,0.2c-0.2,0.1-0.4,0.2-0.6,0.2c-0.1,0-0.1,0-0.1,0c-0.3-0.1-0.4-0.3-0.6-0.5
				c-0.1-0.1-0.3-0.3-0.4-0.4c-0.1-0.1-0.3,0-0.5,0c-0.1,0.1-0.3,0.1-0.4,0.1c-0.1,0-0.3-0.1-0.3-0.1c-0.2-0.1-0.3-0.4-0.4-0.6
				c-0.1-0.1-0.1-0.4-0.3-0.5c-0.1-0.1-0.3-0.1-0.5-0.1c-0.3-0.1-0.5-0.1-0.6-0.3c-0.1-0.1-0.1-0.5-0.1-0.7c0-0.2,0-0.4-0.1-0.5
				c-0.1-0.1-0.1-0.6-0.3-0.7c-0.6-0.5-0.3-1.4-0.3-1.5c-0.1,0.1-0.4,0.6-0.5,0.7c-0.2,0.2-0.3,0.4-0.3,0.6c0,0.3,0.1,0.5,0.3,0.6
				c0.1,0.1,0.3,0.3,0.3,0.5c0,0.2-0.1,0.3-0.1,0.5c-0.1,0.3-0.2,0.5-0.1,0.7c0.1,0.2,0.3,0.4,0.5,0.5c0.1,0.1,0.3,0.2,0.4,0.3
				s0.1,0.3,0.1,0.5c0,0.3,0,0.5,0.1,0.7c0.2,0.1,0.4,0.3,0.6,0.3c0.2,0.1,0.4,0.1,0.5,0.1c0.1,0.1,0.2,0.3,0.3,0.5
				c0.1,0.3,0.2,0.5,0.4,0.6c0.1,0.1,0.2,0.1,0.3,0.1s0.3-0.1,0.4-0.1c0.2-0.1,0.4-0.1,0.5,0c0.1,0.1,0.3,0.2,0.4,0.4
				c0.1,0.2,0.3,0.4,0.6,0.5c0.1,0,0.1,0,0.1,0c0.2,0,0.4-0.1,0.6-0.2c0.1-0.1,0.3-0.2,0.5-0.2s0.3,0.1,0.5,0.2
				c0.2,0.1,0.4,0.2,0.6,0.2c0.1,0,0.1,0,0.1,0c0.3-0.1,0.4-0.3,0.6-0.5c0.1-0.1,0.3-0.3,0.4-0.4c0.1-0.1,0.3,0,0.5,0
				c0.1,0.1,0.3,0.1,0.4,0.1c0.1,0,0.3-0.1,0.3-0.1c0.2-0.1,0.3-0.4,0.4-0.6c0.1-0.1,0.1-0.4,0.3-0.5c0.1-0.1,0.3-0.1,0.5-0.1
				c0.3-0.1,0.5-0.1,0.6-0.3c0.1-0.1,0.1-0.5,0.1-0.7c0-0.2,0-0.4,0.1-0.5c0.1-0.1,0.3-0.3,0.4-0.3c0.2-0.1,0.5-0.3,0.5-0.5
				c0.1-0.2,0-0.5-0.1-0.7c-0.1-0.2-0.1-0.4-0.1-0.5c0.1-0.1,0.1-0.3,0.3-0.5C574.5,205,574.7,204.8,574.7,204.5z"/>
			<path fill="#262626" d="M576.1,192.7c0-0.1,0-0.3-0.1-0.4c-0.1-0.9-0.6-1.2-1.4-1.7c0.3-0.4,0.3-0.9,0.3-1.4c-0.6,0-1.2,0-1.7,0
				c0.2-0.3,0.3-0.6,0.2-0.9c-0.8-0.1-1.7,0-2.5,0.2c0.1-0.4-0.3-0.7-0.7-0.8c-1-0.3-2.1,0.3-3,0.6c-0.5,0.1-2.8-0.3-2.7,0.6
				c-0.3-0.1-0.5-0.3-0.8-0.3c-0.3-0.1-0.6,0.1-0.8,0.3c-0.1,0.1-0.1,0.1-0.1,0.1c-0.1,0.1-0.1,0.1-0.3,0.1c-0.4,0.1-0.7,0.6-0.6,1
				c0.1-0.1-0.1-0.3-0.3-0.3c-0.8-0.1-1.8,1.5-1.8,2.2c0,0.6,0,1.1,0,1.7c0,0.1,0,0.3-0.1,0.4s-0.1,0.2-0.3,0.3
				c-0.3,0.4-0.1,1,0.3,1.2c-0.5,1.2,0.1,1.9,0.6,2.9c0.1,0.3,0.8,1.6,0.7,1.9c0,0,0.1-0.1,0.1-0.3c0.1,0.3,0.3,0.6,0.4,0.8
				c0,0-0.1-1.6,0.5-3.6c0.2-0.8,0.9-1.8,1.4-2.7c0.8,0.3,2.1,0.7,3.9,1c1.4,0.2,3.2,0.4,5.3,0.4c0.1,0.1,0.1,0.1,0.1,0.1
				c0.1,0.4,0.1,0.7,0.2,1c0.1,0.9,0.6,3.5,0.6,3.5s0.1-0.1,0.1-0.3c0.1,0.5,0.1,0.8,0.1,0.8c0.3-0.8,0.4-2.1,1-2.7
				c0.6-0.6,1.3-0.5,1.7-1.4c0.3-0.6,0.1-1.4-0.1-1.9c-0.1-0.1-0.2-0.3-0.3-0.5c-0.1-0.1-0.1-0.3-0.1-0.4
				C576.1,193.6,576.1,193.2,576.1,192.7z"/>
		</g>
		<g>
			<path fill="#6C3F26" d="M628.7,224.2v5.3l0,0v3c0,0,3.3-0.7,3.3-3v-5.3H628.7z"/>
			<path d="M635.9,225.6c1-1.5,1.4-3.7,1.4-5.6c0-4.8-3.9-8.6-8.6-8.6c-4.8,0-8.6,3.9-8.6,8.6c0,1.9,0.5,4.1,1.4,5.6
				c-0.1,1-0.4,2.2,0.5,3.4c-0.3,0.4-0.4,0.9-0.3,1.5c0.2,1,1,1.6,1.3,2.1c0.3,0.5,0.1,1.5,0.1,1.5s2.6-2.1,2-4.2
				c-0.2-0.5-0.4-0.8-0.6-1.1c0.3-0.4,0.4-0.8,0.4-1.4c0.5-0.8,2-3.7,3.3-3.7c0.2,0,0.5,0.1,0.7,0.2c0.3-0.1,0.5-0.2,0.7-0.2
				c1.3,0,2.8,3,3.3,3.7c0,0.6,0.1,1,0.4,1.4c-0.3,0.3-0.5,0.6-0.6,1.1c-0.6,2.1,2,4.2,2,4.2s-0.3-1,0.1-1.5
				c0.3-0.5,1.2-1.1,1.3-2.1c0.1-0.6-0.1-1.1-0.3-1.5C636.2,227.7,635.9,226.5,635.9,225.6z"/>
			<path fill="#7B533C" d="M634.4,218.5c-0.1,0-0.4,0.2-0.6,0.4c0-0.3,0.1-0.6,0.1-0.8c0.1-1.3,0.3-4.8-3-4.8c-2,0-2.2,0-2.2,0
				s-0.1,0-2.2,0c-3.3,0-3,3.5-3,4.8c0,0.3,0,0.5,0.1,0.8c-0.2-0.2-0.5-0.4-0.6-0.4c-0.4,0-0.6,0.7-0.7,1.1
				c-0.1,0.4,0.5,2.2,0.6,2.4c0.1,0.2,0.5,0.6,0.8,0.3c0.1-0.1,0.1-0.1,0.1-0.1c0.1,0.5,0.1,1,0.1,1.5c0,2.1,1.9,2.6,2.4,3.2
				c1,1,2.4,0.8,2.4,0.8s1.5,0.1,2.4-0.8c0.6-0.6,2.4-1.2,2.4-3.2c0-0.5,0-1,0.1-1.5c0.1,0.1,0.1,0.1,0.1,0.1
				c0.3,0.4,0.7-0.1,0.8-0.3c0.1-0.2,0.7-1.9,0.6-2.4C635,219.3,634.8,218.5,634.4,218.5z"/>
			<path fill="#FFDE17" d="M622.9,231.7c-0.6,0.1-1.2,0.8-1,1.7c0.1,0.8,0.8,1.4,1.1,1.7c0.3,0.5,0.1,1.2,0.1,1.2s2.2-1.7,1.7-3.5
				C624.3,231.7,623.5,231.6,622.9,231.7z"/>
			<path fill="#FFDE17" d="M634.4,231.7c0.6,0.1,1.2,0.8,1,1.7c-0.1,0.8-0.8,1.4-1,1.7c-0.3,0.5-0.1,1.2-0.1,1.2s-2.2-1.7-1.7-3.5
				C633,231.7,633.8,231.6,634.4,231.7z"/>
			<path fill="#FFDE17" d="M634.3,234.3c0.4,0.1,0.9,0.6,0.8,1.4c-0.1,0.6-0.6,1-0.8,1.4s0,0.9,0,0.9s-1.7-1.3-1.2-2.6
				C633.3,234.3,633.9,234.2,634.3,234.3z"/>
			<path fill="#009ED4" d="M623,218.5c0,0-0.9-3.6,2.7-5.5c1.2-0.7,3.3-1.2,5.7,0.1c0,0,3.1,1.4,3.1,5.5c0,0,0.2,0.1,0.3,0.1
				c0,0,0.4-6.8-6.2-6.8c-2.3,0-6.3,1.4-5.9,6.8L623,218.5z"/>
			<path fill="#E24512" d="M625.8,312.2c-1.6,0-2.2-0.9-2.2-0.9v3.3c0.4,0.6,2.2,0.6,2.2,0.6s1.8,0,2.2-0.6v-3.3
				C628,311.3,627.4,312.2,625.8,312.2z"/>
			<path fill="#E24512" d="M631.5,312.2c-1.6,0-2.2-0.9-2.2-0.9v3.3c0.4,0.6,2.2,0.6,2.2,0.6s1.8,0,2.2-0.6v-3.3
				C633.7,311.3,633.2,312.2,631.5,312.2z"/>
			<g>
				<g>
					<path fill="#E64E9D" d="M625.8,309c0,0-1,0-1.9,0.3l-0.1,1.2c0,0,0.5-0.4,2.1-0.4c1.6,0,2.1,0.4,2.1,0.4l-0.1-1.2
						C626.9,309,625.8,309,625.8,309z"/>
					<path fill="#E64E9D" d="M633.4,309.3c-0.9-0.3-1.9-0.3-1.9-0.3s-1,0-1.9,0.3l-0.2,1.2c0,0,0.5-0.4,2.1-0.4s2.1,0.4,2.1,0.4
						L633.4,309.3z"/>
				</g>
			</g>
			<g>
				<path fill="#6C3F26" d="M647.9,263.1c-1.4-0.5-2.7-0.8-2.7-0.8l-3.2-10c-0.2-0.5-0.1-1.1-0.1-1.5c-0.1-1.7-0.2-3.3-0.3-4.9
					c-0.1-0.9-0.1-1.7-0.2-2.7c-0.1-0.9-0.3-1.8-0.6-2.6c-0.1-0.4-0.4-0.9-0.5-1.4c0-0.3,0.1-0.6,0-1c-0.1-0.8-0.2-1.6-0.3-2.4
					c-0.2-1.1-0.4-2.3-0.8-3.3c-0.5-1.4-1-1.7-2.8-2.1v4.2v3.6l-0.7-0.1l-0.2-2.7v-5.1l-3.8-0.5h-3.3h-3.3l-4.6,0.6
					c-1.7,0.5-2.5,1.2-3.1,2.5c-0.3,0.8-0.8,3.9-0.8,6.4l-0.8,12.9l-3.2,10c0,0-1.3,0.3-2.7,0.8c-0.3,0.1-1.5,1.4-1.5,1.5
					c0.1,0.2,0.4,1,0.9,1c0.5,0,3.6-1.2,3.6-1c0.1,0.4,0.8,1,1.3,1c0.3,0.1,0.1-0.1,0.3-1c0.1-1.3-0.1-2.3-0.1-2.3l4.2-10.2
					l2.4-14.1l-0.7,0.2v-3l8,4l7.7,3.9l-0.4-5l0.6,3.3v0.4c0.1,0,0.1-0.1,0.1-0.1c0.4,1.9,0.7,3.7,1.2,5.5c0.3,1.7,0.7,3.3,1.4,4.8
					c0.3,0.6,0.5,1.2,0.8,1.9c0.9,2.1,1.8,4.2,2.6,6.4c0.3,0.6,0.5,1.2,0.7,1.8c0,0-0.1,1-0.1,2.3c0.1,0.9-0.1,1,0.3,1
					c0.5-0.1,1.2-0.6,1.3-1c0.1-0.1,3.2,1,3.6,1c0.5,0,0.8-0.8,0.9-1C649.4,264.5,648.1,263.2,647.9,263.1z"/>
				<path fill="#6C3F26" d="M636.1,251.7h-7.2l-0.3,6.7l-0.3-6.7h-7.2c0,0-4.3,1.2-0.6,21.9c0.8,4.3,1.9,6.2,2.4,8.9
					c0.7,3.4-0.1,5.9,0,8.9c0.3,4.8,0.9,9.6,1.4,12.9c0,0.7-0.1,1.5-0.2,1.8c-0.2,0.4-0.1,1-0.1,1.3c-0.3,1.4-0.6,3.9-0.6,3.9
					c0.6,1.1,2.2,1,2.2,1s1.5,0.1,2.2-1c0,0-0.4-2.3-0.6-3.7l0,0c0,0,0.3-1,0-1.5c-0.1-0.3-0.2-1-0.2-1.7c0.5-3.7,1-8.9,1-13
					c0-3-0.4-4.2-0.4-8.5c0-3.8,0.6-7.1,0.6-10.2c0-5.7-0.1-5.2-0.1-8.7h0.3l0,0h0.7c0,3.5-0.1,3.1-0.1,8.7c0,3.1,0.6,6.4,0.6,10.2
					c0,4.2-0.4,5.4-0.4,8.5c0,4.2,0.6,9.5,1,13.2c0,0.6-0.1,1.2-0.2,1.5c-0.3,0.5,0,1.5,0,1.5l0,0c-0.3,1.4-0.6,3.7-0.6,3.7
					c0.6,1.1,2.2,1,2.2,1s1.5,0.1,2.2-1c0,0-0.4-2.5-0.6-3.9c0.1-0.3,0.1-0.9-0.1-1.3c-0.1-0.3-0.2-1.2-0.2-1.9
					c0.5-3.3,1.1-8.1,1.4-12.8c0.1-3.1-0.7-5.4,0-8.9c0.6-2.8,1.7-4.6,2.4-8.9C640.4,254.3,636.1,251.7,636.1,251.7z"/>
			</g>
			<g>
				<g>
					<path fill="#E24512" d="M625.8,307.3c0,0-0.9,0-1.7,0.3l-0.1,1c0,0,0.4-0.4,1.8-0.4s1.8,0.4,1.8,0.4l-0.1-1
						C626.7,307.3,625.8,307.3,625.8,307.3z"/>
					<path fill="#E24512" d="M633.2,307.7c-0.8-0.3-1.7-0.3-1.7-0.3s-0.9,0-1.7,0.3l-0.1,1c0,0,0.4-0.4,1.8-0.4s1.8,0.4,1.8,0.4
						L633.2,307.7z"/>
				</g>
			</g>
			<path fill="#FFDE17" d="M635.2,248.7l0.4-4.7c0.5-0.2,1-0.5,1.3-1c1.5-2.4-0.1-4.3-0.1-8.4l0,0v-4.6h-0.9v5.1
				c-1.2,0.6-3.5,1.4-7.1,1.4c-3-0.1-5.9-1-7.1-1.5v-5h-0.9v4.6v0.1c0,4.1-1.7,5.9-0.1,8.3c0.3,0.5,0.8,0.8,1.3,0.9l0.4,4.6
				c-5.2,7.3-4.6,28.2-4.6,28.2s3.3,2.6,11,2.6l0,0v-28.7l0,0v28.7c8.4,0,11-2.6,11-2.6S640.3,256.1,635.2,248.7z"/>
			<path fill="#7B533C" d="M628.7,224.2h-3.3v5.3c0,2.3,3.3,3,3.3,3v-3l0,0V224.2z"/>
		</g>
	</g>
</g>
</svg>
